G75*
G70*
%OFA0B0*%
%FSLAX24Y24*%
%IPPOS*%
%LPD*%
%AMOC8*
5,1,8,0,0,1.08239X$1,22.5*
%
%ADD10C,0.0631*%
%ADD11R,0.0592X0.0671*%
%ADD12R,0.0474X0.0513*%
%ADD13R,0.0474X0.0631*%
%ADD14R,0.0316X0.0946*%
%ADD15R,0.0671X0.0592*%
%ADD16R,0.0237X0.0552*%
%ADD17C,0.1084*%
%ADD18R,0.0710X0.0671*%
%ADD19C,0.0680*%
%ADD20R,0.0395X0.0395*%
%ADD21R,0.0513X0.0474*%
%ADD22C,0.1070*%
%ADD23R,0.0297X0.0552*%
%ADD24R,0.1379X0.0710*%
%ADD25R,0.0741X0.0600*%
%ADD26R,0.0741X0.0808*%
%ADD27R,0.1143X0.0710*%
%ADD28R,0.0552X0.0237*%
%ADD29R,0.0340X0.0880*%
%ADD30R,0.0600X0.0741*%
%ADD31R,0.0808X0.0741*%
%ADD32R,0.0474X0.0237*%
D10*
X034980Y022967D03*
D11*
X028235Y022497D03*
X027565Y022497D03*
X030925Y015887D03*
X031595Y015887D03*
X033625Y008387D03*
X034295Y008387D03*
X034295Y006387D03*
X033625Y006387D03*
X014775Y022407D03*
X014105Y022407D03*
X014145Y023587D03*
X014815Y023587D03*
X014775Y024797D03*
X014105Y024797D03*
X014125Y025937D03*
X014795Y025937D03*
X016975Y023987D03*
X017645Y023987D03*
X013045Y023437D03*
X012375Y023437D03*
X011545Y020637D03*
X010875Y020637D03*
X008295Y020187D03*
X007625Y020187D03*
X007725Y023227D03*
X008395Y023227D03*
X005995Y023737D03*
X005325Y023737D03*
X008325Y027187D03*
X008995Y027187D03*
D12*
X012375Y024687D03*
X013045Y024687D03*
X012995Y022587D03*
X012325Y022587D03*
X013675Y021587D03*
X014345Y021587D03*
X014345Y020387D03*
X013675Y020387D03*
X010095Y020637D03*
X009425Y020637D03*
X008595Y021087D03*
X007925Y021087D03*
X007925Y022387D03*
X008595Y022387D03*
X025945Y022417D03*
X026615Y022417D03*
X026755Y024767D03*
X026085Y024767D03*
X031025Y016737D03*
X031695Y016737D03*
X031945Y014887D03*
X031275Y014887D03*
X032625Y014887D03*
X033295Y014887D03*
X037125Y008887D03*
X037795Y008887D03*
X037795Y006387D03*
X037125Y006387D03*
X003445Y007787D03*
X002775Y007787D03*
D13*
X035586Y006820D03*
X036334Y006820D03*
X035960Y005954D03*
X035960Y007954D03*
X035586Y008820D03*
X036334Y008820D03*
D14*
X034960Y004960D03*
X034460Y004960D03*
X033960Y004960D03*
X033460Y004960D03*
X033460Y002913D03*
X033960Y002913D03*
X034460Y002913D03*
X034960Y002913D03*
D15*
X036510Y003752D03*
X036510Y004421D03*
X034060Y015702D03*
X034060Y016371D03*
X016010Y022452D03*
X016010Y023121D03*
X015110Y021321D03*
X015110Y020652D03*
X012760Y020552D03*
X012760Y021221D03*
X010910Y025702D03*
X010910Y026371D03*
X009860Y026371D03*
X009860Y025702D03*
X006910Y024821D03*
X006910Y024152D03*
X009110Y009121D03*
X009110Y008452D03*
X010610Y008452D03*
X010610Y009121D03*
D16*
X012447Y009428D03*
X012703Y009428D03*
X012958Y009428D03*
X013214Y009428D03*
X013470Y009428D03*
X013726Y009428D03*
X013982Y009428D03*
X014238Y009428D03*
X014494Y009428D03*
X014750Y009428D03*
X015006Y009428D03*
X015262Y009428D03*
X015517Y009428D03*
X015773Y009428D03*
X015773Y007145D03*
X015517Y007145D03*
X015262Y007145D03*
X015006Y007145D03*
X014750Y007145D03*
X014494Y007145D03*
X014238Y007145D03*
X013982Y007145D03*
X013726Y007145D03*
X013470Y007145D03*
X013214Y007145D03*
X012958Y007145D03*
X012703Y007145D03*
X012447Y007145D03*
D17*
X012771Y004789D02*
X012771Y003785D01*
X011212Y003785D02*
X011212Y004789D01*
X009653Y004789D02*
X009653Y003785D01*
X008094Y003785D02*
X008094Y004789D01*
X006535Y004789D02*
X006535Y003785D01*
X004976Y003785D02*
X004976Y004789D01*
X004976Y011785D02*
X004976Y012789D01*
X006535Y012789D02*
X006535Y011785D01*
X008094Y011785D02*
X008094Y012789D01*
X009653Y012789D02*
X009653Y011785D01*
X011212Y011785D02*
X011212Y012789D01*
X012771Y012789D02*
X012771Y011785D01*
X014330Y011785D02*
X014330Y012789D01*
X015890Y012789D02*
X015890Y011785D01*
X017449Y011785D02*
X017449Y012789D01*
X019008Y012789D02*
X019008Y011785D01*
X020567Y011785D02*
X020567Y012789D01*
X022126Y012789D02*
X022126Y011785D01*
X023685Y011785D02*
X023685Y012789D01*
X025244Y012789D02*
X025244Y011785D01*
X025244Y004789D02*
X025244Y003785D01*
X023685Y003785D02*
X023685Y004789D01*
X022126Y004789D02*
X022126Y003785D01*
X020567Y003785D02*
X020567Y004789D01*
X019008Y004789D02*
X019008Y003785D01*
X017449Y003785D02*
X017449Y004789D01*
X015890Y004789D02*
X015890Y003785D01*
X014330Y003785D02*
X014330Y004789D01*
D18*
X016956Y007389D03*
X016956Y008885D03*
X018964Y008885D03*
X018964Y007389D03*
D19*
X003410Y003287D02*
X002810Y003287D01*
X002810Y004287D02*
X003410Y004287D01*
X003410Y005287D02*
X002810Y005287D01*
X002810Y006287D02*
X003410Y006287D01*
X003160Y019887D02*
X003760Y019887D01*
X003760Y020887D02*
X003160Y020887D01*
X003160Y021887D02*
X003760Y021887D01*
X003760Y022887D02*
X003160Y022887D01*
X003160Y023887D02*
X003760Y023887D01*
X003760Y024887D02*
X003160Y024887D01*
X018810Y023687D02*
X019410Y023687D01*
X019410Y022687D02*
X018810Y022687D01*
X023400Y023787D02*
X024000Y023787D01*
X024000Y024787D02*
X023400Y024787D01*
X023400Y025787D02*
X024000Y025787D01*
X024220Y022567D02*
X023620Y022567D01*
X023620Y021567D02*
X024220Y021567D01*
X028940Y018617D02*
X029540Y018617D01*
X029540Y017617D02*
X028940Y017617D01*
X029010Y016337D02*
X029610Y016337D01*
X029610Y015337D02*
X029010Y015337D01*
X029010Y014337D02*
X029610Y014337D01*
X031390Y004137D02*
X031990Y004137D01*
X031990Y003137D02*
X031390Y003137D01*
X030010Y002357D02*
X029410Y002357D01*
X029410Y001357D02*
X030010Y001357D01*
D20*
X003405Y009287D03*
X002815Y009287D03*
D21*
X009110Y007621D03*
X009110Y006952D03*
X010610Y006952D03*
X010610Y007621D03*
X016910Y022452D03*
X016910Y023121D03*
X017760Y023121D03*
X017760Y022452D03*
X016010Y023902D03*
X016010Y024571D03*
X012510Y025752D03*
X012510Y026421D03*
X008360Y026371D03*
X008360Y025702D03*
X008360Y025121D03*
X008360Y024452D03*
X025180Y024422D03*
X025180Y025091D03*
D22*
X029965Y008167D02*
X030955Y008167D01*
X030955Y006607D02*
X029965Y006607D01*
D23*
X032536Y015725D03*
X033284Y015725D03*
X033284Y016748D03*
X032910Y016748D03*
X032536Y016748D03*
D24*
X036660Y017849D03*
X036660Y014345D03*
D25*
X034010Y018971D03*
D26*
X034010Y017400D03*
D27*
X032660Y017835D03*
X032660Y018938D03*
X031260Y018938D03*
X031260Y017835D03*
D28*
X011403Y021837D03*
X011403Y022337D03*
X011403Y022837D03*
X011403Y023337D03*
X011403Y023837D03*
X011403Y024337D03*
X011403Y024837D03*
X009317Y024837D03*
X009317Y024337D03*
X009317Y023837D03*
X009317Y023337D03*
X009317Y022837D03*
X009317Y022337D03*
X009317Y021837D03*
D29*
X006660Y022747D03*
X006160Y022747D03*
X005660Y022747D03*
X005160Y022747D03*
X005160Y020327D03*
X005660Y020327D03*
X006160Y020327D03*
X006660Y020327D03*
D30*
X006345Y019027D03*
X009885Y027467D03*
X032015Y013637D03*
X033995Y001517D03*
X005295Y007277D03*
D31*
X006866Y007277D03*
X004774Y019027D03*
X011456Y027467D03*
X030444Y013637D03*
X032424Y001517D03*
D32*
X027231Y023153D03*
X027231Y023409D03*
X027231Y023665D03*
X027231Y023921D03*
X025449Y023921D03*
X025449Y023665D03*
X025449Y023409D03*
X025449Y023153D03*
M02*
