G75*
G70*
%OFA0B0*%
%FSLAX24Y24*%
%IPPOS*%
%LPD*%
%AMOC8*
5,1,8,0,0,1.08239X$1,22.5*
%
%ADD10C,0.0040*%
%ADD11R,0.0512X0.0591*%
%ADD12R,0.0394X0.0433*%
%ADD13R,0.0394X0.0551*%
%ADD14R,0.0236X0.0866*%
%ADD15R,0.0591X0.0512*%
%ADD16R,0.0157X0.0472*%
%ADD17C,0.1004*%
%ADD18R,0.0630X0.0591*%
%ADD19C,0.0600*%
%ADD20R,0.0315X0.0315*%
%ADD21R,0.0433X0.0394*%
%ADD22C,0.0990*%
%ADD23R,0.0217X0.0472*%
%ADD24R,0.1299X0.0630*%
%ADD25R,0.0661X0.0520*%
%ADD26R,0.0661X0.0728*%
%ADD27R,0.1063X0.0630*%
%ADD28R,0.0472X0.0157*%
%ADD29R,0.0260X0.0800*%
%ADD30R,0.0520X0.0661*%
%ADD31R,0.0728X0.0661*%
%ADD32R,0.0394X0.0157*%
%ADD33C,0.0160*%
%ADD34C,0.0100*%
%ADD35C,0.0357*%
%ADD36C,0.0396*%
D10*
X021800Y017127D02*
X021800Y017474D01*
X021887Y017474D01*
X021973Y017387D01*
X022060Y017474D01*
X022147Y017387D01*
X022147Y017127D01*
X021973Y017127D02*
X021973Y017387D01*
X022316Y017213D02*
X022402Y017300D01*
X022663Y017300D01*
X022663Y017387D02*
X022663Y017127D01*
X022402Y017127D01*
X022316Y017213D01*
X022402Y017474D02*
X022576Y017474D01*
X022663Y017387D01*
X022831Y017387D02*
X022918Y017474D01*
X023178Y017474D01*
X023178Y017647D02*
X023178Y017127D01*
X022918Y017127D01*
X022831Y017213D01*
X022831Y017387D01*
X023347Y017387D02*
X023347Y017213D01*
X023434Y017127D01*
X023607Y017127D01*
X023694Y017300D02*
X023347Y017300D01*
X023347Y017387D02*
X023434Y017474D01*
X023607Y017474D01*
X023694Y017387D01*
X023694Y017300D01*
X024378Y017127D02*
X024638Y017127D01*
X024725Y017213D01*
X024725Y017387D01*
X024638Y017474D01*
X024378Y017474D01*
X024378Y017647D02*
X024378Y017127D01*
X024894Y017213D02*
X024894Y017474D01*
X024894Y017213D02*
X024981Y017127D01*
X025241Y017127D01*
X025241Y017040D02*
X025154Y016953D01*
X025067Y016953D01*
X025241Y017040D02*
X025241Y017474D01*
X025925Y017474D02*
X026099Y017474D01*
X026012Y017560D02*
X026012Y017213D01*
X026099Y017127D01*
X026269Y017213D02*
X026269Y017387D01*
X026356Y017474D01*
X026529Y017474D01*
X026616Y017387D01*
X026616Y017213D01*
X026529Y017127D01*
X026356Y017127D01*
X026269Y017213D01*
X026785Y017387D02*
X026958Y017387D01*
X027128Y017474D02*
X027128Y017213D01*
X027215Y017127D01*
X027475Y017127D01*
X027475Y017474D01*
X026958Y017647D02*
X026871Y017560D01*
X026871Y017127D01*
X026861Y019037D02*
X026861Y019470D01*
X026948Y019557D01*
X027118Y019384D02*
X027118Y019123D01*
X027205Y019037D01*
X027465Y019037D01*
X027465Y019384D01*
X026948Y019297D02*
X026775Y019297D01*
X026606Y019297D02*
X026519Y019384D01*
X026346Y019384D01*
X026259Y019297D01*
X026259Y019123D01*
X026346Y019037D01*
X026519Y019037D01*
X026606Y019123D01*
X026606Y019297D01*
X026089Y019384D02*
X025915Y019384D01*
X026002Y019470D02*
X026002Y019123D01*
X026089Y019037D01*
X025231Y019037D02*
X024971Y019037D01*
X024884Y019123D01*
X024884Y019384D01*
X024715Y019297D02*
X024628Y019384D01*
X024368Y019384D01*
X024368Y019557D02*
X024368Y019037D01*
X024628Y019037D01*
X024715Y019123D01*
X024715Y019297D01*
X025231Y019384D02*
X025231Y018950D01*
X025144Y018863D01*
X025057Y018863D01*
X023684Y019210D02*
X023337Y019210D01*
X023337Y019123D02*
X023337Y019297D01*
X023424Y019384D01*
X023597Y019384D01*
X023684Y019297D01*
X023684Y019210D01*
X023597Y019037D02*
X023424Y019037D01*
X023337Y019123D01*
X023168Y019037D02*
X022908Y019037D01*
X022821Y019123D01*
X022821Y019297D01*
X022908Y019384D01*
X023168Y019384D01*
X023168Y019557D02*
X023168Y019037D01*
X022653Y019037D02*
X022653Y019297D01*
X022566Y019384D01*
X022392Y019384D01*
X022392Y019210D02*
X022653Y019210D01*
X022653Y019037D02*
X022392Y019037D01*
X022306Y019123D01*
X022392Y019210D01*
X022137Y019297D02*
X022137Y019037D01*
X021963Y019037D02*
X021963Y019297D01*
X022050Y019384D01*
X022137Y019297D01*
X021963Y019297D02*
X021877Y019384D01*
X021790Y019384D01*
X021790Y019037D01*
X034816Y024183D02*
X035163Y024183D01*
X035250Y024270D01*
X035163Y024440D02*
X035250Y024527D01*
X035250Y024701D01*
X035163Y024787D01*
X034990Y024787D01*
X034903Y024701D01*
X034903Y024527D01*
X034990Y024440D01*
X035163Y024440D01*
X034903Y024270D02*
X034903Y024097D01*
X034990Y024956D02*
X034990Y025130D01*
X034903Y025300D02*
X035163Y025300D01*
X035250Y025387D01*
X035250Y025647D01*
X034903Y025647D01*
X035163Y025902D02*
X035250Y025902D01*
X035250Y025989D01*
X035163Y025989D01*
X035163Y025902D01*
X035250Y025989D02*
X035423Y025815D01*
X035250Y026159D02*
X035250Y026506D01*
X035250Y026333D02*
X034730Y026333D01*
X034903Y026159D01*
X034990Y026675D02*
X034730Y026675D01*
X034730Y027022D01*
X034816Y027191D02*
X034730Y027277D01*
X034730Y027451D01*
X034816Y027537D01*
X034903Y027537D01*
X035250Y027191D01*
X035250Y027537D01*
X035250Y027706D02*
X034903Y028053D01*
X034816Y028053D01*
X034730Y027966D01*
X034730Y027793D01*
X034816Y027706D01*
X035250Y027706D02*
X035250Y028053D01*
X035163Y028222D02*
X034816Y028222D01*
X034730Y028309D01*
X034730Y028482D01*
X034816Y028569D01*
X035163Y028222D01*
X035250Y028309D01*
X035250Y028482D01*
X035163Y028569D01*
X034816Y028569D01*
X034816Y028737D02*
X034730Y028824D01*
X034730Y028998D01*
X034816Y029084D01*
X035163Y028737D01*
X035250Y028824D01*
X035250Y028998D01*
X035163Y029084D01*
X034816Y029084D01*
X034730Y029253D02*
X034730Y029600D01*
X034816Y029600D01*
X035163Y029253D01*
X035250Y029253D01*
X035163Y028737D02*
X034816Y028737D01*
X034730Y029769D02*
X034730Y030116D01*
X034816Y030116D01*
X035163Y029769D01*
X035250Y029769D01*
X035250Y030284D02*
X035163Y030284D01*
X034816Y030631D01*
X034730Y030631D01*
X034730Y030284D01*
X034730Y030800D02*
X034990Y030800D01*
X034903Y030973D01*
X034903Y031060D01*
X034990Y031147D01*
X035163Y031147D01*
X035250Y031060D01*
X035250Y030887D01*
X035163Y030800D01*
X034730Y030800D02*
X034730Y031147D01*
X034816Y031316D02*
X034730Y031402D01*
X034730Y031576D01*
X034816Y031663D01*
X035163Y031316D01*
X035250Y031402D01*
X035250Y031576D01*
X035163Y031663D01*
X034816Y031663D01*
X034816Y031316D02*
X035163Y031316D01*
X035163Y027022D02*
X035250Y026935D01*
X035250Y026762D01*
X035163Y026675D01*
X034990Y026675D02*
X034903Y026848D01*
X034903Y026935D01*
X034990Y027022D01*
X035163Y027022D01*
X034730Y025130D02*
X034816Y025043D01*
X035250Y025043D01*
D11*
X028235Y022497D03*
X027565Y022497D03*
X030925Y015887D03*
X031595Y015887D03*
X033625Y008387D03*
X034295Y008387D03*
X034295Y006387D03*
X033625Y006387D03*
X014775Y022407D03*
X014105Y022407D03*
X014145Y023587D03*
X014815Y023587D03*
X014775Y024797D03*
X014105Y024797D03*
X014125Y025937D03*
X014795Y025937D03*
X016975Y023987D03*
X017645Y023987D03*
X013045Y023437D03*
X012375Y023437D03*
X011545Y020637D03*
X010875Y020637D03*
X008295Y020187D03*
X007625Y020187D03*
X007725Y023227D03*
X008395Y023227D03*
X005995Y023737D03*
X005325Y023737D03*
X008325Y027187D03*
X008995Y027187D03*
D12*
X012375Y024687D03*
X013045Y024687D03*
X012995Y022587D03*
X012325Y022587D03*
X013675Y021587D03*
X014345Y021587D03*
X014345Y020387D03*
X013675Y020387D03*
X010095Y020637D03*
X009425Y020637D03*
X008595Y021087D03*
X007925Y021087D03*
X007925Y022387D03*
X008595Y022387D03*
X025945Y022417D03*
X026615Y022417D03*
X026755Y024767D03*
X026085Y024767D03*
X031025Y016737D03*
X031695Y016737D03*
X031945Y014887D03*
X031275Y014887D03*
X032625Y014887D03*
X033295Y014887D03*
X037125Y008887D03*
X037795Y008887D03*
X037795Y006387D03*
X037125Y006387D03*
X003445Y007787D03*
X002775Y007787D03*
D13*
X035586Y006820D03*
X036334Y006820D03*
X035960Y005954D03*
X035960Y007954D03*
X035586Y008820D03*
X036334Y008820D03*
D14*
X034960Y004960D03*
X034460Y004960D03*
X033960Y004960D03*
X033460Y004960D03*
X033460Y002913D03*
X033960Y002913D03*
X034460Y002913D03*
X034960Y002913D03*
D15*
X036510Y003752D03*
X036510Y004421D03*
X034060Y015702D03*
X034060Y016371D03*
X016010Y022452D03*
X016010Y023121D03*
X015110Y021321D03*
X015110Y020652D03*
X012760Y020552D03*
X012760Y021221D03*
X010910Y025702D03*
X010910Y026371D03*
X009860Y026371D03*
X009860Y025702D03*
X006910Y024821D03*
X006910Y024152D03*
X009110Y009121D03*
X009110Y008452D03*
X010610Y008452D03*
X010610Y009121D03*
D16*
X012447Y009428D03*
X012703Y009428D03*
X012958Y009428D03*
X013214Y009428D03*
X013470Y009428D03*
X013726Y009428D03*
X013982Y009428D03*
X014238Y009428D03*
X014494Y009428D03*
X014750Y009428D03*
X015006Y009428D03*
X015262Y009428D03*
X015517Y009428D03*
X015773Y009428D03*
X015773Y007145D03*
X015517Y007145D03*
X015262Y007145D03*
X015006Y007145D03*
X014750Y007145D03*
X014494Y007145D03*
X014238Y007145D03*
X013982Y007145D03*
X013726Y007145D03*
X013470Y007145D03*
X013214Y007145D03*
X012958Y007145D03*
X012703Y007145D03*
X012447Y007145D03*
D17*
X012771Y004789D02*
X012771Y003785D01*
X011212Y003785D02*
X011212Y004789D01*
X009653Y004789D02*
X009653Y003785D01*
X008094Y003785D02*
X008094Y004789D01*
X006535Y004789D02*
X006535Y003785D01*
X004976Y003785D02*
X004976Y004789D01*
X004976Y011785D02*
X004976Y012789D01*
X006535Y012789D02*
X006535Y011785D01*
X008094Y011785D02*
X008094Y012789D01*
X009653Y012789D02*
X009653Y011785D01*
X011212Y011785D02*
X011212Y012789D01*
X012771Y012789D02*
X012771Y011785D01*
X014330Y011785D02*
X014330Y012789D01*
X015890Y012789D02*
X015890Y011785D01*
X017449Y011785D02*
X017449Y012789D01*
X019008Y012789D02*
X019008Y011785D01*
X020567Y011785D02*
X020567Y012789D01*
X022126Y012789D02*
X022126Y011785D01*
X023685Y011785D02*
X023685Y012789D01*
X025244Y012789D02*
X025244Y011785D01*
X025244Y004789D02*
X025244Y003785D01*
X023685Y003785D02*
X023685Y004789D01*
X022126Y004789D02*
X022126Y003785D01*
X020567Y003785D02*
X020567Y004789D01*
X019008Y004789D02*
X019008Y003785D01*
X017449Y003785D02*
X017449Y004789D01*
X015890Y004789D02*
X015890Y003785D01*
X014330Y003785D02*
X014330Y004789D01*
D18*
X016956Y007389D03*
X016956Y008885D03*
X018964Y008885D03*
X018964Y007389D03*
D19*
X003410Y003287D02*
X002810Y003287D01*
X002810Y004287D02*
X003410Y004287D01*
X003410Y005287D02*
X002810Y005287D01*
X002810Y006287D02*
X003410Y006287D01*
X003160Y019887D02*
X003760Y019887D01*
X003760Y020887D02*
X003160Y020887D01*
X003160Y021887D02*
X003760Y021887D01*
X003760Y022887D02*
X003160Y022887D01*
X003160Y023887D02*
X003760Y023887D01*
X003760Y024887D02*
X003160Y024887D01*
X018810Y023687D02*
X019410Y023687D01*
X019410Y022687D02*
X018810Y022687D01*
X023400Y023787D02*
X024000Y023787D01*
X024000Y024787D02*
X023400Y024787D01*
X023400Y025787D02*
X024000Y025787D01*
X024220Y022567D02*
X023620Y022567D01*
X023620Y021567D02*
X024220Y021567D01*
X028940Y018617D02*
X029540Y018617D01*
X029540Y017617D02*
X028940Y017617D01*
X029010Y016337D02*
X029610Y016337D01*
X029610Y015337D02*
X029010Y015337D01*
X029010Y014337D02*
X029610Y014337D01*
X031390Y004137D02*
X031990Y004137D01*
X031990Y003137D02*
X031390Y003137D01*
X030010Y002357D02*
X029410Y002357D01*
X029410Y001357D02*
X030010Y001357D01*
D20*
X003405Y009287D03*
X002815Y009287D03*
D21*
X009110Y007621D03*
X009110Y006952D03*
X010610Y006952D03*
X010610Y007621D03*
X016910Y022452D03*
X016910Y023121D03*
X017760Y023121D03*
X017760Y022452D03*
X016010Y023902D03*
X016010Y024571D03*
X012510Y025752D03*
X012510Y026421D03*
X008360Y026371D03*
X008360Y025702D03*
X008360Y025121D03*
X008360Y024452D03*
X025180Y024422D03*
X025180Y025091D03*
D22*
X029965Y008167D02*
X030955Y008167D01*
X030955Y006607D02*
X029965Y006607D01*
D23*
X032536Y015725D03*
X033284Y015725D03*
X033284Y016748D03*
X032910Y016748D03*
X032536Y016748D03*
D24*
X036660Y017849D03*
X036660Y014345D03*
D25*
X034010Y018971D03*
D26*
X034010Y017400D03*
D27*
X032660Y017835D03*
X032660Y018938D03*
X031260Y018938D03*
X031260Y017835D03*
D28*
X011403Y021837D03*
X011403Y022337D03*
X011403Y022837D03*
X011403Y023337D03*
X011403Y023837D03*
X011403Y024337D03*
X011403Y024837D03*
X009317Y024837D03*
X009317Y024337D03*
X009317Y023837D03*
X009317Y023337D03*
X009317Y022837D03*
X009317Y022337D03*
X009317Y021837D03*
D29*
X006660Y022747D03*
X006160Y022747D03*
X005660Y022747D03*
X005160Y022747D03*
X005160Y020327D03*
X005660Y020327D03*
X006160Y020327D03*
X006660Y020327D03*
D30*
X006345Y019027D03*
X009885Y027467D03*
X032015Y013637D03*
X033995Y001517D03*
X005295Y007277D03*
D31*
X006866Y007277D03*
X004774Y019027D03*
X011456Y027467D03*
X030444Y013637D03*
X032424Y001517D03*
D32*
X027231Y023153D03*
X027231Y023409D03*
X027231Y023665D03*
X027231Y023921D03*
X025449Y023921D03*
X025449Y023665D03*
X025449Y023409D03*
X025449Y023153D03*
D33*
X036334Y008820D02*
X036460Y008887D01*
X034460Y006387D02*
X034295Y006387D01*
X035010Y003487D02*
X035260Y003487D01*
X035360Y003387D01*
X035010Y003487D02*
X034995Y003472D01*
X034960Y003437D01*
X034960Y002913D01*
D34*
X034960Y002637D01*
X034950Y002627D01*
X034950Y002557D01*
X034720Y002327D01*
X034480Y002327D01*
X033990Y001837D01*
X033990Y001517D01*
X033995Y001517D01*
X034220Y002327D02*
X033200Y002327D01*
X032540Y002987D01*
X031690Y003137D01*
X031690Y004137D02*
X032660Y003987D01*
X033460Y003187D01*
X033460Y002913D01*
X033960Y002913D02*
X033960Y003257D01*
X034230Y003527D01*
X034940Y003527D01*
X034995Y003472D01*
X034550Y003757D02*
X034055Y004252D01*
X034050Y004247D01*
X033930Y004377D01*
X033200Y004377D01*
X032980Y004597D01*
X031240Y004597D01*
X031230Y004587D01*
X030970Y004587D01*
X030970Y004327D01*
X029710Y003067D01*
X029710Y002357D01*
X029870Y001517D02*
X029710Y001357D01*
X029870Y001517D02*
X032424Y001517D01*
X034220Y002327D02*
X034450Y002557D01*
X034450Y002627D01*
X034460Y002637D01*
X034460Y002913D01*
X034550Y003757D02*
X036510Y003757D01*
X036510Y003752D01*
X036510Y004421D02*
X036510Y004437D01*
X035360Y004437D01*
X035010Y004437D01*
X034960Y004487D01*
X034960Y004960D01*
X034460Y004960D02*
X034460Y004337D01*
X034510Y004287D01*
X034510Y004237D01*
X034055Y004252D02*
X033970Y004337D01*
X033970Y004677D01*
X033960Y004687D01*
X033960Y004960D01*
X033460Y004960D02*
X033460Y005587D01*
X033510Y005637D01*
X035960Y005637D01*
X035960Y005787D01*
X035960Y005954D01*
X035960Y005787D02*
X037060Y005787D01*
X037110Y005837D01*
X037110Y006387D01*
X037125Y006387D01*
X036810Y006837D02*
X036810Y008287D01*
X037060Y008287D01*
X037110Y008337D01*
X037110Y008887D01*
X037125Y008887D01*
X037795Y008887D02*
X037810Y008887D01*
X037810Y006387D01*
X037795Y006387D01*
X037810Y006387D02*
X037810Y005737D01*
X037210Y005137D01*
X036760Y005137D01*
X036760Y004437D01*
X036510Y004437D01*
X035260Y005967D02*
X035260Y006557D01*
X035370Y006557D01*
X035370Y006537D01*
X035790Y006537D01*
X035790Y007097D01*
X035660Y007097D01*
X035660Y007107D01*
X035800Y007107D01*
X035800Y006527D01*
X035350Y006527D01*
X035350Y006467D01*
X035510Y006467D01*
X035590Y006547D01*
X035590Y006777D01*
X035586Y006820D01*
X035610Y006837D01*
X035610Y007387D01*
X035510Y007487D01*
X035510Y008137D01*
X035610Y008237D01*
X035610Y008787D01*
X035586Y008820D01*
X035960Y008287D02*
X035960Y007954D01*
X035960Y008287D02*
X036810Y008287D01*
X036334Y008820D02*
X036310Y008887D01*
X036310Y009437D01*
X036260Y009487D01*
X034860Y009487D01*
X034310Y008937D01*
X034310Y008387D01*
X034295Y008387D01*
X033625Y008387D02*
X033610Y008387D01*
X033610Y008137D01*
X030460Y008137D01*
X030460Y008167D01*
X030510Y006687D02*
X030460Y006637D01*
X030460Y006607D01*
X030510Y006687D02*
X033610Y006687D01*
X033610Y006387D01*
X033625Y006387D01*
X034295Y006387D02*
X034310Y006437D01*
X034310Y007037D01*
X036310Y006837D02*
X036334Y006820D01*
X036310Y006837D02*
X036310Y007387D01*
X032015Y013637D02*
X032010Y013637D01*
X032010Y013917D01*
X032020Y013927D01*
X032210Y013927D01*
X032760Y014477D01*
X033140Y014477D01*
X033290Y014627D01*
X033290Y014887D01*
X033295Y014887D01*
X033290Y014927D01*
X033290Y015167D01*
X033280Y015177D01*
X033280Y015717D01*
X033284Y015725D01*
X033330Y015707D01*
X034020Y015707D01*
X034060Y015702D01*
X034060Y015707D01*
X035020Y015707D01*
X036380Y014347D01*
X036660Y014347D01*
X036660Y014345D01*
X034060Y016367D02*
X034060Y016371D01*
X034060Y016367D02*
X033550Y016367D01*
X033540Y016357D01*
X033020Y016357D01*
X032905Y016472D01*
X032840Y016407D01*
X032840Y015367D01*
X032820Y015367D01*
X032710Y015257D01*
X032030Y015257D01*
X031940Y015167D01*
X031940Y014887D01*
X031945Y014887D01*
X032140Y014387D02*
X032140Y014357D01*
X032380Y014357D01*
X032630Y014607D01*
X032630Y014887D01*
X032625Y014887D01*
X032140Y014357D02*
X029330Y014357D01*
X029310Y014337D01*
X029800Y013757D02*
X029920Y013637D01*
X030444Y013637D01*
X031275Y014887D02*
X031280Y014887D01*
X031280Y015257D01*
X030930Y015607D01*
X030930Y015847D01*
X030925Y015887D01*
X030930Y015887D01*
X030930Y016357D01*
X031030Y016457D01*
X031030Y016737D01*
X031025Y016737D01*
X031690Y016737D02*
X031690Y017017D01*
X031950Y017277D01*
X031695Y016737D02*
X031690Y016697D01*
X031690Y016457D01*
X031590Y016357D01*
X031590Y015887D01*
X031595Y015887D01*
X032140Y015587D02*
X032290Y015437D01*
X032530Y015437D01*
X032540Y015447D01*
X032540Y015717D01*
X032536Y015725D01*
X032905Y016472D02*
X032910Y016477D01*
X032910Y016748D01*
X032910Y017827D01*
X032900Y017837D01*
X032700Y017837D01*
X032660Y017835D01*
X032660Y017837D01*
X031300Y017837D01*
X031260Y017835D01*
X031260Y017837D01*
X030980Y017837D01*
X030760Y017617D01*
X029240Y017617D01*
X029240Y018617D02*
X029560Y018937D01*
X031260Y018937D01*
X031260Y018938D01*
X031300Y018937D01*
X031950Y018937D01*
X031950Y018387D01*
X031950Y018937D02*
X032660Y018937D01*
X032660Y018938D01*
X032700Y018937D01*
X032940Y018937D01*
X032970Y018967D01*
X034010Y018967D01*
X034010Y018971D01*
X034180Y017847D02*
X034010Y017677D01*
X034010Y017400D01*
X034010Y017147D01*
X033900Y017037D01*
X033290Y017037D01*
X033280Y017027D01*
X033280Y016757D01*
X033284Y016748D01*
X034180Y017847D02*
X036660Y017847D01*
X036660Y017849D01*
X031695Y016737D02*
X031690Y016737D01*
X027580Y021567D02*
X028230Y022217D01*
X028230Y022497D01*
X028235Y022497D01*
X028230Y022537D01*
X028230Y022777D01*
X027930Y023077D01*
X027580Y022927D02*
X027580Y023887D01*
X027560Y023907D01*
X027520Y023907D01*
X027510Y023917D01*
X027280Y023917D01*
X027231Y023921D01*
X027230Y023917D01*
X027040Y023917D01*
X027040Y024197D01*
X026750Y024487D01*
X026750Y024767D01*
X026755Y024767D01*
X026750Y024807D01*
X026750Y025047D01*
X026530Y025267D01*
X026300Y024997D02*
X025870Y024997D01*
X025840Y025037D01*
X025840Y025147D01*
X025540Y025447D01*
X024360Y025447D01*
X023700Y024787D01*
X023250Y024327D02*
X024800Y024327D01*
X024900Y024427D01*
X025060Y024427D01*
X025180Y024422D01*
X025180Y024427D01*
X025100Y024427D01*
X025100Y023697D01*
X025130Y023667D01*
X025440Y023667D01*
X025449Y023665D01*
X025450Y023917D02*
X025449Y023921D01*
X025450Y023917D02*
X025720Y023917D01*
X026030Y024227D01*
X026030Y024537D01*
X026300Y024537D01*
X026300Y024997D01*
X026090Y024767D02*
X026085Y024767D01*
X026090Y024767D02*
X026090Y024547D01*
X026080Y024537D01*
X025870Y024537D01*
X025870Y024997D01*
X025180Y025087D02*
X025180Y025091D01*
X025180Y025087D02*
X024900Y025087D01*
X024870Y025117D01*
X024680Y025117D01*
X023700Y025787D02*
X022970Y025057D01*
X022970Y024607D01*
X023090Y024487D01*
X023090Y024427D01*
X023150Y024427D01*
X023250Y024327D01*
X023700Y023787D02*
X024500Y023787D01*
X025120Y023167D01*
X025160Y023147D01*
X025170Y023157D01*
X025440Y023157D01*
X025449Y023153D01*
X025450Y023407D02*
X025449Y023409D01*
X025450Y023407D02*
X025720Y023407D01*
X025730Y023397D01*
X025780Y023397D01*
X025950Y023227D01*
X025950Y022417D01*
X025945Y022417D01*
X025600Y022047D02*
X026520Y022047D01*
X026610Y022137D01*
X026610Y022227D01*
X026610Y022417D01*
X026615Y022417D01*
X026610Y022227D02*
X027560Y022227D01*
X027570Y022237D01*
X027570Y022497D01*
X027565Y022497D01*
X027570Y022537D01*
X027570Y022917D01*
X027580Y022927D01*
X027231Y023153D02*
X027230Y023157D01*
X026960Y023157D01*
X026950Y023167D01*
X026900Y023167D01*
X026880Y023187D01*
X026840Y023167D01*
X026750Y023077D01*
X026880Y023187D02*
X026880Y023407D01*
X027230Y023407D01*
X027231Y023409D01*
X027231Y023665D02*
X027230Y023667D01*
X026910Y023667D01*
X026880Y023637D01*
X026880Y023407D01*
X025160Y023147D02*
X025160Y022807D01*
X025180Y022467D02*
X024020Y022467D01*
X023920Y022567D01*
X023920Y021567D02*
X025160Y021567D01*
X025160Y022017D01*
X025600Y022047D02*
X025180Y022467D01*
X025160Y021567D02*
X027580Y021567D01*
X019110Y022687D02*
X018880Y022457D01*
X017760Y022457D01*
X017760Y022452D01*
X017720Y022457D01*
X016910Y022457D01*
X016910Y022452D01*
X016870Y022457D01*
X016050Y022457D01*
X016010Y022452D01*
X016010Y022457D01*
X015820Y022457D01*
X015820Y022137D01*
X014780Y022137D01*
X014770Y022147D01*
X014770Y022367D01*
X014775Y022407D01*
X014770Y022407D01*
X014770Y023267D01*
X014810Y023307D01*
X014810Y023547D01*
X014815Y023587D01*
X014810Y023587D01*
X014810Y024187D01*
X014770Y024187D01*
X014810Y024187D02*
X014810Y024477D01*
X014770Y024517D01*
X014770Y024757D01*
X014775Y024797D01*
X014770Y024797D01*
X014770Y025637D01*
X014790Y025657D01*
X014790Y025937D01*
X014795Y025937D01*
X015200Y026387D02*
X014300Y026387D01*
X014130Y026217D01*
X014130Y025977D01*
X014125Y025937D01*
X014130Y025937D01*
X014130Y025657D01*
X014110Y025637D01*
X014110Y024797D01*
X014105Y024797D01*
X014110Y024757D01*
X014110Y024517D01*
X014150Y024477D01*
X014150Y023587D01*
X014145Y023587D01*
X014150Y023547D01*
X014150Y023307D01*
X014110Y023267D01*
X014110Y022407D01*
X014105Y022407D01*
X014110Y022367D01*
X014110Y022227D01*
X013070Y022227D01*
X012990Y022307D01*
X012950Y022277D01*
X012890Y022217D01*
X011980Y022217D01*
X011970Y022227D01*
X011970Y022307D01*
X011810Y022467D01*
X011810Y022537D01*
X011780Y022567D01*
X011060Y022567D01*
X011010Y022617D01*
X011010Y022697D01*
X010940Y022767D01*
X010220Y022767D01*
X009910Y022457D01*
X009810Y022457D01*
X009660Y022607D01*
X009040Y022607D01*
X008930Y022717D01*
X008930Y023217D01*
X009010Y023297D01*
X009040Y023337D01*
X009317Y023337D01*
X009040Y023337D02*
X009030Y023347D01*
X009030Y023507D01*
X008620Y023917D01*
X008340Y023617D02*
X008050Y023907D01*
X008020Y023907D01*
X007670Y023657D02*
X007670Y023627D01*
X007680Y023617D01*
X007680Y023337D01*
X007725Y023227D01*
X007680Y023297D01*
X007680Y023057D01*
X007930Y022807D01*
X007930Y022387D01*
X007925Y022387D01*
X007930Y022347D01*
X007930Y022107D01*
X007920Y022097D01*
X007950Y022057D01*
X008110Y021897D01*
X008110Y021687D01*
X008260Y021687D01*
X007920Y022097D02*
X007590Y022097D01*
X006160Y020667D01*
X006160Y020327D01*
X005660Y020327D02*
X005660Y020047D01*
X005670Y020037D01*
X005670Y019977D01*
X006340Y019307D01*
X006340Y019027D01*
X006345Y019027D01*
X004774Y019027D02*
X004520Y019027D01*
X004190Y019357D01*
X004190Y020157D01*
X003460Y020887D01*
X003460Y021887D02*
X003880Y021887D01*
X005160Y020607D01*
X005160Y020327D01*
X005660Y020327D02*
X005660Y020667D01*
X005440Y020887D01*
X005140Y020887D01*
X004680Y021347D01*
X004680Y022597D01*
X005160Y022747D02*
X005160Y022927D01*
X003500Y022927D01*
X003460Y022887D01*
X004240Y023107D02*
X003460Y023887D01*
X004240Y023107D02*
X004800Y023107D01*
X004970Y023277D01*
X005390Y023277D01*
X005660Y023007D01*
X005660Y022747D01*
X006160Y022747D02*
X006160Y022407D01*
X005130Y021377D01*
X006510Y022327D02*
X006810Y022327D01*
X006810Y022997D01*
X007110Y022997D01*
X006810Y023007D02*
X006810Y023167D01*
X006510Y023167D01*
X006510Y022327D01*
X006660Y022747D02*
X006660Y022997D01*
X006670Y023007D01*
X006810Y023007D01*
X006160Y022747D02*
X006160Y023287D01*
X005990Y023457D01*
X005990Y023697D01*
X005995Y023737D01*
X006010Y023737D01*
X006010Y024387D01*
X006060Y024437D01*
X006060Y024987D01*
X006760Y025687D01*
X008360Y025687D01*
X008360Y025702D01*
X008400Y025707D01*
X008610Y025707D01*
X008620Y025697D01*
X008620Y025637D01*
X008580Y025637D01*
X008580Y025707D01*
X009330Y025707D01*
X009330Y025287D01*
X009570Y025047D02*
X009810Y025287D01*
X010300Y025287D01*
X010460Y025447D01*
X010460Y026197D01*
X010630Y026367D01*
X010910Y026367D01*
X010910Y026371D01*
X010950Y026367D01*
X011170Y026367D01*
X011180Y026377D01*
X011180Y026417D01*
X012510Y026417D01*
X012510Y026421D01*
X012510Y025757D02*
X012230Y025757D01*
X012180Y025707D01*
X010950Y025707D01*
X010910Y025702D01*
X010910Y025707D01*
X010650Y025707D01*
X010640Y025697D01*
X010640Y025367D01*
X010380Y025107D01*
X009890Y025107D01*
X009750Y024967D01*
X009750Y024517D01*
X009570Y024337D01*
X009317Y024337D01*
X009040Y024337D01*
X008930Y024447D01*
X008930Y024807D01*
X008620Y025117D01*
X008360Y025117D01*
X008360Y025121D01*
X009110Y024757D02*
X009570Y024757D01*
X009570Y025047D01*
X009360Y024837D02*
X009317Y024837D01*
X009360Y024837D02*
X009360Y024747D01*
X009110Y024747D01*
X009110Y024757D01*
X008360Y024452D02*
X008360Y024437D01*
X007710Y024437D01*
X007660Y024487D01*
X007660Y024637D01*
X007460Y024837D01*
X006910Y024837D01*
X006910Y024821D01*
X006910Y024157D02*
X006910Y024152D01*
X006910Y024157D02*
X007170Y024157D01*
X007670Y023657D01*
X008340Y023617D02*
X008340Y023377D01*
X008395Y023227D01*
X008340Y023337D01*
X008340Y023057D01*
X008590Y022807D01*
X008590Y022387D01*
X008595Y022387D01*
X008630Y022337D01*
X009317Y022337D01*
X009317Y022837D02*
X009570Y022837D01*
X009710Y022977D01*
X009750Y022947D01*
X010900Y022947D01*
X010900Y023097D01*
X010900Y022947D02*
X011020Y022947D01*
X011130Y022837D01*
X011403Y022837D01*
X012320Y022837D01*
X012350Y022877D01*
X012350Y023127D01*
X012380Y023157D01*
X012380Y023437D01*
X012375Y023437D01*
X011970Y023887D02*
X011790Y023707D01*
X011790Y023447D01*
X011680Y023337D01*
X011403Y023337D01*
X011130Y023337D01*
X010060Y024407D01*
X009590Y023837D02*
X009317Y023837D01*
X009590Y023837D02*
X009710Y023717D01*
X009710Y022977D01*
X008595Y022387D02*
X008590Y022347D01*
X008590Y021087D01*
X008595Y021087D01*
X009020Y021477D02*
X009020Y021817D01*
X009040Y021837D01*
X009317Y021837D01*
X010090Y021297D02*
X011130Y022337D01*
X011403Y022337D01*
X011680Y022337D01*
X011790Y022227D01*
X011790Y021927D01*
X012500Y021217D01*
X012760Y021217D01*
X012760Y021221D01*
X012760Y020557D02*
X012480Y020557D01*
X012380Y020457D01*
X011540Y020457D01*
X011540Y020637D01*
X011545Y020637D01*
X010880Y020637D02*
X010880Y020357D01*
X010670Y020147D01*
X009640Y020147D01*
X009430Y020357D01*
X009430Y020457D01*
X009430Y020637D01*
X009425Y020637D01*
X009430Y020457D02*
X008300Y020457D01*
X008290Y020447D01*
X008290Y020187D01*
X008295Y020187D01*
X007630Y020187D02*
X007630Y020507D01*
X007930Y020807D01*
X007930Y021087D01*
X007925Y021087D01*
X007630Y020187D02*
X007625Y020187D01*
X010090Y020637D02*
X010095Y020637D01*
X010090Y020637D02*
X010090Y021297D01*
X010880Y021587D02*
X010880Y020677D01*
X010875Y020637D01*
X010880Y020637D01*
X010880Y021587D02*
X011130Y021837D01*
X011403Y021837D01*
X012325Y022587D02*
X012330Y022587D01*
X012330Y022827D01*
X012320Y022837D01*
X012990Y022587D02*
X012995Y022587D01*
X012990Y022587D02*
X012990Y022307D01*
X013210Y021897D02*
X013250Y021857D01*
X013330Y021857D01*
X013320Y021867D01*
X013320Y021947D01*
X013420Y022047D01*
X013610Y022047D01*
X013700Y021957D01*
X014690Y021957D01*
X014820Y021827D01*
X014820Y021327D01*
X014830Y021317D01*
X015110Y021317D01*
X015110Y021321D01*
X015110Y020657D02*
X014850Y020657D01*
X014350Y021157D01*
X014350Y021297D01*
X014340Y021307D01*
X014340Y021587D01*
X014345Y021587D01*
X013680Y021587D02*
X013675Y021587D01*
X013680Y021587D02*
X013680Y020567D01*
X013050Y020567D01*
X013040Y020557D01*
X012800Y020557D01*
X012760Y020552D01*
X012760Y020557D01*
X013680Y020567D02*
X013680Y020387D01*
X013675Y020387D01*
X014340Y020387D02*
X014345Y020387D01*
X014340Y020387D02*
X014340Y020237D01*
X015550Y020237D01*
X015820Y020507D01*
X015820Y022137D01*
X015710Y022857D02*
X015710Y022867D01*
X015610Y022867D01*
X015610Y022857D01*
X015590Y022857D01*
X015590Y022877D01*
X015560Y022877D01*
X015500Y022937D01*
X015500Y022967D01*
X015580Y023047D01*
X015700Y023047D01*
X015700Y023387D01*
X015350Y023387D01*
X015710Y023397D02*
X016240Y023397D01*
X016240Y023857D01*
X016230Y023857D01*
X016230Y023687D01*
X015780Y023687D01*
X015780Y024117D01*
X016240Y024117D01*
X016240Y023957D01*
X016710Y023957D01*
X016710Y024297D01*
X017230Y024297D01*
X017230Y024287D01*
X017240Y024287D01*
X017240Y023687D01*
X016690Y023687D01*
X016690Y023327D01*
X017140Y023327D01*
X017140Y022907D01*
X016680Y022907D01*
X016680Y023067D01*
X016310Y023067D01*
X016310Y022857D01*
X015710Y022857D01*
X015710Y022947D02*
X015710Y023397D01*
X015730Y023117D02*
X015970Y023117D01*
X016010Y023121D01*
X016010Y023117D01*
X016290Y023117D01*
X016300Y023127D01*
X016640Y023127D01*
X016640Y023807D01*
X016980Y023807D01*
X016980Y023987D01*
X016975Y023987D01*
X016640Y023807D02*
X016390Y023807D01*
X016290Y023907D01*
X016010Y023907D01*
X016010Y023902D01*
X015730Y023117D02*
X015600Y022987D01*
X015600Y022947D01*
X015710Y022947D01*
X016640Y023127D02*
X016650Y023117D01*
X016910Y023117D01*
X016910Y023121D01*
X017580Y023117D02*
X017580Y023647D01*
X017640Y023707D01*
X017640Y023987D01*
X017645Y023987D01*
X017580Y023117D02*
X017760Y023117D01*
X017760Y023121D01*
X017800Y023117D01*
X018540Y023117D01*
X019110Y023687D01*
X016010Y024567D02*
X016010Y024571D01*
X016010Y024567D02*
X015870Y024567D01*
X015870Y025717D01*
X015200Y026387D01*
X013045Y024687D02*
X013040Y024687D01*
X013040Y024407D01*
X013260Y024187D01*
X013230Y024147D01*
X013040Y023957D01*
X013040Y023887D01*
X011970Y023887D01*
X011890Y024067D02*
X011660Y023837D01*
X011403Y023837D01*
X011890Y024067D02*
X012540Y024067D01*
X012690Y024217D01*
X012380Y024507D02*
X011910Y024507D01*
X011900Y024517D01*
X011680Y024837D02*
X011403Y024837D01*
X011150Y024837D01*
X011140Y024827D01*
X011140Y024347D01*
X011150Y024337D01*
X011403Y024337D01*
X011680Y024837D02*
X011840Y024997D01*
X011910Y024997D01*
X012375Y024687D02*
X012380Y024687D01*
X012380Y024507D01*
X013040Y023887D02*
X013040Y023437D01*
X013045Y023437D01*
X012510Y025752D02*
X012510Y025757D01*
X011180Y026417D02*
X011180Y027457D01*
X011190Y027467D01*
X011456Y027467D01*
X010160Y027117D02*
X010160Y027817D01*
X009620Y027817D01*
X009620Y027417D01*
X009890Y027417D01*
X009890Y027467D01*
X009885Y027467D01*
X009620Y027417D02*
X009600Y027417D01*
X009610Y027407D02*
X008990Y027407D01*
X008990Y027187D01*
X008995Y027187D01*
X009590Y027077D02*
X009610Y027117D01*
X009610Y027407D01*
X009610Y027117D02*
X010160Y027117D01*
X009590Y027077D02*
X009590Y026377D01*
X009600Y026367D01*
X009860Y026367D01*
X009860Y026371D01*
X009860Y025707D02*
X009330Y025707D01*
X009860Y025707D02*
X009860Y025702D01*
X008360Y026371D02*
X008330Y026427D01*
X008330Y027187D01*
X008325Y027187D01*
X008360Y026387D02*
X007910Y026387D01*
X007860Y026337D01*
X007810Y026387D01*
X004960Y026387D01*
X003460Y024887D01*
X004680Y023457D02*
X005320Y023457D01*
X005330Y023467D01*
X005330Y023737D01*
X005325Y023737D01*
X005330Y023777D01*
X005330Y024017D01*
X005630Y024317D01*
X008360Y026371D02*
X008360Y026387D01*
X015110Y020657D02*
X015110Y020652D01*
X015860Y012287D02*
X015890Y012287D01*
X015860Y012287D02*
X014260Y010687D01*
X014260Y009437D01*
X014238Y009428D01*
X014494Y009428D02*
X014510Y009437D01*
X014510Y009987D01*
X014460Y010037D01*
X014460Y010587D01*
X014860Y010987D01*
X016110Y010987D01*
X017410Y012287D01*
X017449Y012287D01*
X017810Y011137D02*
X016560Y011137D01*
X016210Y010787D01*
X014960Y010787D01*
X014660Y010487D01*
X014660Y010137D01*
X014760Y010037D01*
X014760Y009437D01*
X014750Y009428D01*
X015006Y009428D02*
X015010Y009437D01*
X015010Y010487D01*
X015110Y010587D01*
X016310Y010587D01*
X016660Y010937D01*
X017910Y010937D01*
X018110Y011137D01*
X019410Y011137D01*
X020560Y012287D01*
X020567Y012287D01*
X020960Y011137D02*
X019710Y011137D01*
X019510Y010937D01*
X018210Y010937D01*
X018010Y010737D01*
X016760Y010737D01*
X016410Y010387D01*
X015260Y010387D01*
X015210Y010337D01*
X015210Y010037D01*
X015260Y009987D01*
X015260Y009437D01*
X015262Y009428D01*
X015510Y009437D02*
X015517Y009428D01*
X015510Y009437D02*
X015510Y010037D01*
X015660Y010187D01*
X016510Y010187D01*
X016860Y010537D01*
X018110Y010537D01*
X018310Y010737D01*
X019610Y010737D01*
X019810Y010937D01*
X021060Y010937D01*
X021260Y011137D01*
X022510Y011137D01*
X023660Y012287D01*
X023685Y012287D01*
X024060Y011137D02*
X022810Y011137D01*
X022610Y010937D01*
X021360Y010937D01*
X021160Y010737D01*
X019910Y010737D01*
X019710Y010537D01*
X018410Y010537D01*
X018210Y010337D01*
X016960Y010337D01*
X016610Y009987D01*
X015760Y009987D01*
X015760Y009437D01*
X015773Y009428D01*
X015920Y008617D02*
X016360Y008617D01*
X015920Y008617D02*
X015470Y008167D01*
X013630Y008167D01*
X013460Y007997D01*
X012810Y007997D01*
X012790Y007977D01*
X012490Y007977D01*
X012290Y008177D01*
X011170Y008177D01*
X010890Y008457D01*
X010650Y008457D01*
X010610Y008452D01*
X010610Y008457D01*
X009150Y008457D01*
X009110Y008452D01*
X009110Y008457D01*
X008830Y008457D01*
X008250Y007877D01*
X005650Y007877D01*
X005340Y007567D01*
X005295Y007277D01*
X005300Y007237D01*
X005300Y005517D01*
X006530Y004287D01*
X006535Y004287D01*
X004976Y004287D02*
X004160Y004287D01*
X003160Y003287D01*
X003110Y003287D01*
X003110Y005287D02*
X003060Y005287D01*
X002310Y006037D01*
X002310Y008187D01*
X002460Y008337D01*
X002460Y008887D01*
X002410Y008937D01*
X002410Y009637D01*
X002460Y009687D01*
X003160Y009687D01*
X003210Y009637D01*
X003210Y009287D01*
X003405Y009287D01*
X004010Y009287D01*
X004160Y009137D01*
X009110Y009137D01*
X009110Y009121D01*
X009110Y009137D02*
X010610Y009137D01*
X010610Y009121D01*
X010610Y009137D02*
X011610Y009137D01*
X012460Y008287D01*
X012660Y008287D01*
X012210Y007997D02*
X012690Y007517D01*
X012690Y007427D01*
X012700Y007417D01*
X012700Y007147D01*
X012703Y007145D01*
X012460Y007137D02*
X012447Y007145D01*
X012460Y007137D02*
X012460Y006537D01*
X012360Y006437D01*
X007160Y006437D01*
X007140Y007277D02*
X006866Y007277D01*
X007140Y007277D02*
X007290Y007427D01*
X008100Y007427D01*
X008100Y007467D01*
X008630Y007997D01*
X012210Y007997D01*
X012960Y007687D02*
X012960Y007187D01*
X012958Y007145D01*
X013210Y007187D02*
X013210Y007487D01*
X013410Y007687D01*
X013710Y007987D01*
X017460Y007987D01*
X017985Y008512D01*
X017610Y008887D01*
X016960Y008887D01*
X016956Y008885D01*
X017985Y008512D02*
X018360Y008887D01*
X018960Y008887D01*
X018964Y008885D01*
X018964Y007389D02*
X018960Y007387D01*
X018690Y007387D01*
X018680Y007397D01*
X017580Y007397D01*
X016956Y007389D02*
X016910Y007387D01*
X016310Y007387D01*
X015910Y007787D01*
X013960Y007787D01*
X013710Y007537D01*
X013710Y007187D01*
X013726Y007145D01*
X013710Y007137D01*
X013710Y006587D01*
X013760Y006537D01*
X013760Y006187D01*
X013360Y005787D01*
X013210Y005787D01*
X012910Y005487D01*
X012360Y005487D01*
X012610Y005687D02*
X012810Y005687D01*
X013260Y006137D01*
X013410Y006487D02*
X012710Y006487D01*
X012460Y006237D01*
X008410Y006237D01*
X008360Y006187D01*
X008360Y006087D01*
X008510Y005387D02*
X009160Y006037D01*
X012710Y006037D01*
X012460Y005837D02*
X012610Y005687D01*
X012460Y005837D02*
X011210Y005837D01*
X009660Y004287D01*
X009653Y004287D01*
X008510Y004687D02*
X008510Y005387D01*
X008510Y004687D02*
X008110Y004287D01*
X008094Y004287D01*
X008460Y006937D02*
X009110Y006937D01*
X009110Y006952D01*
X009110Y007621D02*
X009110Y007637D01*
X009810Y007637D01*
X009960Y007787D01*
X009960Y007687D01*
X010610Y007637D02*
X010610Y007621D01*
X010610Y007637D02*
X011260Y007637D01*
X011260Y006937D02*
X010610Y006937D01*
X010610Y006952D01*
X011960Y005087D02*
X012760Y004287D01*
X012771Y004287D01*
X013960Y004637D02*
X014310Y004287D01*
X014330Y004287D01*
X013960Y004637D02*
X013960Y007137D01*
X013982Y007145D01*
X014238Y007145D02*
X014260Y007137D01*
X014260Y006637D01*
X014160Y006537D01*
X014160Y005987D01*
X015860Y004287D01*
X015890Y004287D01*
X016260Y005437D02*
X017410Y004287D01*
X017449Y004287D01*
X017810Y005437D02*
X016560Y005437D01*
X016360Y005637D01*
X015110Y005637D01*
X014760Y005987D01*
X014760Y007137D01*
X014750Y007145D01*
X014510Y007137D02*
X014494Y007145D01*
X014510Y007137D02*
X014510Y006587D01*
X014360Y006437D01*
X014360Y006087D01*
X015010Y005437D01*
X016260Y005437D01*
X016660Y005637D02*
X016460Y005837D01*
X015360Y005837D01*
X014960Y006237D01*
X014960Y006537D01*
X015010Y006587D01*
X015010Y007137D01*
X015006Y007145D01*
X015260Y007137D02*
X015262Y007145D01*
X015260Y007137D02*
X015260Y006237D01*
X015460Y006037D01*
X016560Y006037D01*
X016760Y005837D01*
X018010Y005837D01*
X018210Y005637D01*
X019510Y005637D01*
X019710Y005437D01*
X020960Y005437D01*
X022110Y004287D01*
X022126Y004287D01*
X022510Y005437D02*
X021260Y005437D01*
X021060Y005637D01*
X019810Y005637D01*
X019610Y005837D01*
X018310Y005837D01*
X018110Y006037D01*
X016860Y006037D01*
X016660Y006237D01*
X015560Y006237D01*
X015510Y006287D01*
X015510Y007137D01*
X015517Y007145D01*
X015760Y007137D02*
X015773Y007145D01*
X015760Y007137D02*
X015760Y006537D01*
X015860Y006437D01*
X016760Y006437D01*
X016960Y006237D01*
X018210Y006237D01*
X018410Y006037D01*
X019710Y006037D01*
X019910Y005837D01*
X021160Y005837D01*
X021360Y005637D01*
X022610Y005637D01*
X022810Y005437D01*
X024060Y005437D01*
X025210Y004287D01*
X025244Y004287D01*
X023685Y004287D02*
X023660Y004287D01*
X022510Y005437D01*
X020567Y004287D02*
X020560Y004287D01*
X019410Y005437D01*
X018110Y005437D01*
X017910Y005637D01*
X016660Y005637D01*
X017810Y005437D02*
X018960Y004287D01*
X019008Y004287D01*
X013460Y006537D02*
X013460Y007137D01*
X013470Y007145D01*
X013214Y007145D02*
X013210Y007187D01*
X013460Y006537D02*
X013410Y006487D01*
X013470Y009428D02*
X013460Y009437D01*
X013460Y010187D01*
X012710Y010937D01*
X011310Y010937D01*
X011210Y011037D01*
X011210Y012287D01*
X011212Y012287D01*
X011210Y010737D02*
X009660Y012287D01*
X009653Y012287D01*
X008094Y012287D02*
X008060Y012287D01*
X008060Y011087D01*
X008610Y010537D01*
X012510Y010537D01*
X012960Y010087D01*
X012960Y009437D01*
X012958Y009428D01*
X012710Y009437D02*
X012703Y009428D01*
X012710Y009437D02*
X012710Y010037D01*
X012410Y010337D01*
X008510Y010337D01*
X006560Y012287D01*
X006535Y012287D01*
X006160Y011137D02*
X007410Y011137D01*
X008410Y010137D01*
X012310Y010137D01*
X012460Y009987D01*
X012460Y009437D01*
X012447Y009428D01*
X013210Y009437D02*
X013210Y010137D01*
X012610Y010737D01*
X011210Y010737D01*
X012810Y011137D02*
X012810Y012287D01*
X012771Y012287D01*
X013960Y011937D02*
X014310Y012287D01*
X014330Y012287D01*
X013960Y011937D02*
X013960Y009437D01*
X013982Y009428D01*
X013726Y009428D02*
X013710Y009437D01*
X013710Y010237D01*
X012810Y011137D01*
X013210Y009437D02*
X013214Y009428D01*
X017810Y011137D02*
X018960Y012287D01*
X019008Y012287D01*
X020960Y011137D02*
X022110Y012287D01*
X022126Y012287D01*
X024060Y011137D02*
X025210Y012287D01*
X025244Y012287D01*
X006160Y011137D02*
X005010Y012287D01*
X004976Y012287D01*
X002815Y009287D02*
X002810Y009287D01*
X002810Y008487D01*
X002760Y008437D01*
X002760Y007787D01*
X002775Y007787D01*
X003440Y007787D02*
X003440Y007547D01*
X005290Y007547D01*
X005300Y007537D01*
X005300Y007277D01*
X005295Y007277D01*
X003440Y007507D02*
X003440Y007547D01*
X003440Y007507D02*
X003110Y007177D01*
X003110Y006287D01*
X003440Y007787D02*
X003445Y007787D01*
D35*
X007160Y006437D03*
X008360Y006087D03*
X008460Y006937D03*
X009960Y007687D03*
X011260Y007637D03*
X011260Y006937D03*
X012710Y006037D03*
X013260Y006137D03*
X012360Y005487D03*
X011960Y005087D03*
X012960Y007687D03*
X013410Y007687D03*
X012660Y008287D03*
X034310Y007037D03*
X036310Y007387D03*
X036810Y006837D03*
X035360Y004437D03*
X034510Y004237D03*
X035360Y003387D03*
D36*
X034050Y004247D03*
X035260Y005967D03*
X029800Y013757D03*
X032140Y014387D03*
X032140Y015587D03*
X031950Y017277D03*
X031950Y018387D03*
X027930Y023077D03*
X026750Y023077D03*
X025160Y022807D03*
X025160Y022017D03*
X024680Y025117D03*
X026530Y025267D03*
X015350Y023387D03*
X014770Y024187D03*
X013260Y024187D03*
X012690Y024217D03*
X011900Y024517D03*
X011910Y024997D03*
X010060Y024407D03*
X009330Y025287D03*
X008620Y023917D03*
X008020Y023907D03*
X007110Y022997D03*
X008260Y021687D03*
X009020Y021477D03*
X010900Y023097D03*
X013210Y021897D03*
X005630Y024317D03*
X004680Y023457D03*
X004680Y022597D03*
X005130Y021377D03*
X016360Y008617D03*
X017580Y007397D03*
M02*
