G75*
G70*
%OFA0B0*%
%FSLAX24Y24*%
%IPPOS*%
%LPD*%
%AMOC8*
5,1,8,0,0,1.08239X$1,22.5*
%
%ADD10C,0.0040*%
%ADD11C,0.1004*%
%ADD12C,0.0600*%
%ADD13C,0.0990*%
%ADD14C,0.0100*%
%ADD15C,0.0357*%
%ADD16C,0.0396*%
%ADD17C,0.0160*%
D10*
X034790Y024270D02*
X034877Y024183D01*
X035224Y024183D01*
X035137Y024097D02*
X035137Y024270D01*
X035050Y024440D02*
X034877Y024440D01*
X034790Y024527D01*
X034790Y024701D01*
X034877Y024787D01*
X035050Y024787D01*
X035137Y024701D01*
X035137Y024527D01*
X035050Y024440D01*
X035050Y024956D02*
X035050Y025130D01*
X035137Y025300D02*
X034877Y025300D01*
X034790Y025387D01*
X034790Y025647D01*
X035137Y025647D01*
X034877Y025902D02*
X034790Y025902D01*
X034790Y025989D01*
X034877Y025989D01*
X034877Y025902D01*
X034790Y025989D02*
X034617Y025815D01*
X034790Y026159D02*
X034790Y026506D01*
X034790Y026333D02*
X035310Y026333D01*
X035137Y026159D01*
X035050Y026675D02*
X035137Y026848D01*
X035137Y026935D01*
X035050Y027022D01*
X034877Y027022D01*
X034790Y026935D01*
X034790Y026762D01*
X034877Y026675D01*
X035050Y026675D02*
X035310Y026675D01*
X035310Y027022D01*
X035224Y027191D02*
X035310Y027277D01*
X035310Y027451D01*
X035224Y027537D01*
X035137Y027537D01*
X034790Y027191D01*
X034790Y027537D01*
X034790Y027706D02*
X035137Y028053D01*
X035224Y028053D01*
X035310Y027966D01*
X035310Y027793D01*
X035224Y027706D01*
X034790Y027706D02*
X034790Y028053D01*
X034877Y028222D02*
X035224Y028569D01*
X034877Y028569D01*
X034790Y028482D01*
X034790Y028309D01*
X034877Y028222D01*
X035224Y028222D01*
X035310Y028309D01*
X035310Y028482D01*
X035224Y028569D01*
X035224Y028737D02*
X034877Y028737D01*
X035224Y029084D01*
X034877Y029084D01*
X034790Y028998D01*
X034790Y028824D01*
X034877Y028737D01*
X035224Y028737D02*
X035310Y028824D01*
X035310Y028998D01*
X035224Y029084D01*
X035310Y029253D02*
X035310Y029600D01*
X035224Y029600D01*
X034877Y029253D01*
X034790Y029253D01*
X034790Y029769D02*
X034877Y029769D01*
X035224Y030116D01*
X035310Y030116D01*
X035310Y029769D01*
X035310Y030284D02*
X035310Y030631D01*
X035224Y030631D01*
X034877Y030284D01*
X034790Y030284D01*
X034877Y030800D02*
X034790Y030887D01*
X034790Y031060D01*
X034877Y031147D01*
X035050Y031147D01*
X035137Y031060D01*
X035137Y030973D01*
X035050Y030800D01*
X035310Y030800D01*
X035310Y031147D01*
X035224Y031316D02*
X035310Y031402D01*
X035310Y031576D01*
X035224Y031663D01*
X034877Y031316D01*
X034790Y031402D01*
X034790Y031576D01*
X034877Y031663D01*
X035224Y031663D01*
X035224Y031316D02*
X034877Y031316D01*
X035310Y025130D02*
X035224Y025043D01*
X034790Y025043D01*
D11*
X025244Y012789D02*
X025244Y011785D01*
X023685Y011785D02*
X023685Y012789D01*
X022126Y012789D02*
X022126Y011785D01*
X020567Y011785D02*
X020567Y012789D01*
X019008Y012789D02*
X019008Y011785D01*
X017449Y011785D02*
X017449Y012789D01*
X015890Y012789D02*
X015890Y011785D01*
X014330Y011785D02*
X014330Y012789D01*
X012771Y012789D02*
X012771Y011785D01*
X011212Y011785D02*
X011212Y012789D01*
X009653Y012789D02*
X009653Y011785D01*
X008094Y011785D02*
X008094Y012789D01*
X006535Y012789D02*
X006535Y011785D01*
X004976Y011785D02*
X004976Y012789D01*
X004976Y004789D02*
X004976Y003785D01*
X006535Y003785D02*
X006535Y004789D01*
X008094Y004789D02*
X008094Y003785D01*
X009653Y003785D02*
X009653Y004789D01*
X011212Y004789D02*
X011212Y003785D01*
X012771Y003785D02*
X012771Y004789D01*
X014330Y004789D02*
X014330Y003785D01*
X015890Y003785D02*
X015890Y004789D01*
X017449Y004789D02*
X017449Y003785D01*
X019008Y003785D02*
X019008Y004789D01*
X020567Y004789D02*
X020567Y003785D01*
X022126Y003785D02*
X022126Y004789D01*
X023685Y004789D02*
X023685Y003785D01*
X025244Y003785D02*
X025244Y004789D01*
D12*
X003410Y003287D02*
X002810Y003287D01*
X002810Y004287D02*
X003410Y004287D01*
X003410Y005287D02*
X002810Y005287D01*
X002810Y006287D02*
X003410Y006287D01*
X003160Y019887D02*
X003760Y019887D01*
X003760Y020887D02*
X003160Y020887D01*
X003160Y021887D02*
X003760Y021887D01*
X003760Y022887D02*
X003160Y022887D01*
X003160Y023887D02*
X003760Y023887D01*
X003760Y024887D02*
X003160Y024887D01*
X018810Y023687D02*
X019410Y023687D01*
X019410Y022687D02*
X018810Y022687D01*
X023400Y023787D02*
X024000Y023787D01*
X024000Y024787D02*
X023400Y024787D01*
X023400Y025787D02*
X024000Y025787D01*
X024220Y022567D02*
X023620Y022567D01*
X023620Y021567D02*
X024220Y021567D01*
X028940Y018617D02*
X029540Y018617D01*
X029540Y017617D02*
X028940Y017617D01*
X029010Y016337D02*
X029610Y016337D01*
X029610Y015337D02*
X029010Y015337D01*
X029010Y014337D02*
X029610Y014337D01*
X031390Y004137D02*
X031990Y004137D01*
X031990Y003137D02*
X031390Y003137D01*
X030010Y002357D02*
X029410Y002357D01*
X029410Y001357D02*
X030010Y001357D01*
D13*
X029965Y006607D02*
X030955Y006607D01*
X030955Y008167D02*
X029965Y008167D01*
D14*
X034310Y007037D02*
X034660Y007387D01*
X036310Y007387D01*
X036810Y006837D02*
X035560Y005587D01*
X035560Y005437D01*
X034510Y004387D01*
X034510Y004237D01*
X034410Y004547D02*
X034350Y004547D01*
X034050Y004247D01*
X034410Y004547D02*
X035260Y005397D01*
X035260Y005967D01*
X029800Y013757D02*
X029800Y013917D01*
X030040Y014157D01*
X030040Y014607D01*
X029310Y015337D01*
X029310Y016337D02*
X029310Y017547D01*
X029240Y017617D01*
X031950Y017277D02*
X031950Y018387D01*
X032140Y015587D02*
X032140Y014387D01*
X025160Y022017D02*
X025160Y022807D01*
X026750Y023077D02*
X027930Y023077D01*
X026530Y025267D02*
X024830Y025267D01*
X024680Y025117D01*
X015350Y023387D02*
X013310Y023387D01*
X012690Y024007D01*
X012690Y024217D01*
X012230Y024207D02*
X012230Y024677D01*
X011910Y024997D01*
X011900Y024517D02*
X011900Y024097D01*
X010900Y023097D01*
X012230Y024207D02*
X013210Y023227D01*
X013210Y021897D01*
X013260Y024187D02*
X014770Y024187D01*
X010060Y024407D02*
X010060Y024557D01*
X009330Y025287D01*
X008220Y024317D02*
X008620Y023917D01*
X008220Y024317D02*
X005630Y024317D01*
X004680Y023457D02*
X004680Y022597D01*
X004950Y021377D02*
X003460Y019887D01*
X004950Y021377D02*
X005130Y021377D01*
X007110Y022997D02*
X008020Y023907D01*
X008260Y021687D02*
X008810Y021687D01*
X009020Y021477D01*
X016360Y008617D02*
X017580Y007397D01*
X014330Y004287D02*
X014330Y004287D01*
X012970Y002927D01*
X004470Y002927D01*
X003110Y004287D01*
X004976Y004287D02*
X005010Y004287D01*
X007160Y006437D01*
X008360Y006087D02*
X008360Y006837D01*
X008460Y006937D01*
X009960Y007687D02*
X009960Y005537D01*
X011210Y004287D01*
X011212Y004287D01*
X011960Y005087D02*
X011960Y006237D01*
X011260Y006937D01*
X011610Y006887D02*
X011610Y007037D01*
X011260Y007387D01*
X011260Y007637D01*
X011610Y006887D02*
X012160Y006337D01*
X012160Y005687D01*
X012360Y005487D01*
X012710Y006037D02*
X012710Y007437D01*
X012960Y007687D01*
X013260Y007537D02*
X013410Y007687D01*
X012810Y008287D01*
X012660Y008287D01*
X013260Y007537D02*
X013260Y006137D01*
D15*
X013260Y006137D03*
X012710Y006037D03*
X012360Y005487D03*
X011960Y005087D03*
X011260Y006937D03*
X011260Y007637D03*
X009960Y007687D03*
X008460Y006937D03*
X008360Y006087D03*
X007160Y006437D03*
X012660Y008287D03*
X012960Y007687D03*
X013410Y007687D03*
X034310Y007037D03*
X036310Y007387D03*
X036810Y006837D03*
X035360Y004437D03*
X034510Y004237D03*
X035360Y003387D03*
D16*
X034050Y004247D03*
X035260Y005967D03*
X029800Y013757D03*
X032140Y014387D03*
X032140Y015587D03*
X031950Y017277D03*
X031950Y018387D03*
X027930Y023077D03*
X026750Y023077D03*
X025160Y022807D03*
X025160Y022017D03*
X024680Y025117D03*
X026530Y025267D03*
X015350Y023387D03*
X014770Y024187D03*
X013260Y024187D03*
X012690Y024217D03*
X011900Y024517D03*
X011910Y024997D03*
X010060Y024407D03*
X009330Y025287D03*
X008620Y023917D03*
X008020Y023907D03*
X007110Y022997D03*
X008260Y021687D03*
X009020Y021477D03*
X010900Y023097D03*
X013210Y021897D03*
X005630Y024317D03*
X004680Y023457D03*
X004680Y022597D03*
X005130Y021377D03*
X016360Y008617D03*
X017580Y007397D03*
D17*
X003420Y020777D02*
X003420Y020887D01*
X003460Y020887D01*
X035360Y004437D02*
X035360Y003387D01*
M02*
