G75*
G70*
%OFA0B0*%
%FSLAX24Y24*%
%IPPOS*%
%LPD*%
%AMOC8*
5,1,8,0,0,1.08239X$1,22.5*
%
%ADD10C,0.0631*%
%ADD11C,0.1084*%
%ADD12C,0.0680*%
%ADD13C,0.1070*%
%ADD14C,0.0437*%
%ADD15C,0.0476*%
D10*
X034980Y022967D03*
D11*
X025244Y012789D02*
X025244Y011785D01*
X023685Y011785D02*
X023685Y012789D01*
X022126Y012789D02*
X022126Y011785D01*
X020567Y011785D02*
X020567Y012789D01*
X019008Y012789D02*
X019008Y011785D01*
X017449Y011785D02*
X017449Y012789D01*
X015890Y012789D02*
X015890Y011785D01*
X014330Y011785D02*
X014330Y012789D01*
X012771Y012789D02*
X012771Y011785D01*
X011212Y011785D02*
X011212Y012789D01*
X009653Y012789D02*
X009653Y011785D01*
X008094Y011785D02*
X008094Y012789D01*
X006535Y012789D02*
X006535Y011785D01*
X004976Y011785D02*
X004976Y012789D01*
X004976Y004789D02*
X004976Y003785D01*
X006535Y003785D02*
X006535Y004789D01*
X008094Y004789D02*
X008094Y003785D01*
X009653Y003785D02*
X009653Y004789D01*
X011212Y004789D02*
X011212Y003785D01*
X012771Y003785D02*
X012771Y004789D01*
X014330Y004789D02*
X014330Y003785D01*
X015890Y003785D02*
X015890Y004789D01*
X017449Y004789D02*
X017449Y003785D01*
X019008Y003785D02*
X019008Y004789D01*
X020567Y004789D02*
X020567Y003785D01*
X022126Y003785D02*
X022126Y004789D01*
X023685Y004789D02*
X023685Y003785D01*
X025244Y003785D02*
X025244Y004789D01*
D12*
X003410Y003287D02*
X002810Y003287D01*
X002810Y004287D02*
X003410Y004287D01*
X003410Y005287D02*
X002810Y005287D01*
X002810Y006287D02*
X003410Y006287D01*
X003160Y019887D02*
X003760Y019887D01*
X003760Y020887D02*
X003160Y020887D01*
X003160Y021887D02*
X003760Y021887D01*
X003760Y022887D02*
X003160Y022887D01*
X003160Y023887D02*
X003760Y023887D01*
X003760Y024887D02*
X003160Y024887D01*
X018810Y023687D02*
X019410Y023687D01*
X019410Y022687D02*
X018810Y022687D01*
X023400Y023787D02*
X024000Y023787D01*
X024000Y024787D02*
X023400Y024787D01*
X023400Y025787D02*
X024000Y025787D01*
X024220Y022567D02*
X023620Y022567D01*
X023620Y021567D02*
X024220Y021567D01*
X028940Y018617D02*
X029540Y018617D01*
X029540Y017617D02*
X028940Y017617D01*
X029010Y016337D02*
X029610Y016337D01*
X029610Y015337D02*
X029010Y015337D01*
X029010Y014337D02*
X029610Y014337D01*
X031390Y004137D02*
X031990Y004137D01*
X031990Y003137D02*
X031390Y003137D01*
X030010Y002357D02*
X029410Y002357D01*
X029410Y001357D02*
X030010Y001357D01*
D13*
X029965Y006607D02*
X030955Y006607D01*
X030955Y008167D02*
X029965Y008167D01*
D14*
X034310Y007037D03*
X036310Y007387D03*
X036810Y006837D03*
X035360Y004437D03*
X034510Y004237D03*
X035360Y003387D03*
X013260Y006137D03*
X012710Y006037D03*
X012360Y005487D03*
X011960Y005087D03*
X011260Y006937D03*
X011260Y007637D03*
X009960Y007687D03*
X008460Y006937D03*
X008360Y006087D03*
X007160Y006437D03*
X012660Y008287D03*
X012960Y007687D03*
X013410Y007687D03*
D15*
X016360Y008617D03*
X017580Y007397D03*
X029800Y013757D03*
X032140Y014387D03*
X032140Y015587D03*
X031950Y017277D03*
X031950Y018387D03*
X027930Y023077D03*
X026750Y023077D03*
X025160Y022807D03*
X025160Y022017D03*
X024680Y025117D03*
X026530Y025267D03*
X015350Y023387D03*
X014770Y024187D03*
X013260Y024187D03*
X012690Y024217D03*
X011900Y024517D03*
X011910Y024997D03*
X010060Y024407D03*
X009330Y025287D03*
X008620Y023917D03*
X008020Y023907D03*
X007110Y022997D03*
X008260Y021687D03*
X009020Y021477D03*
X010900Y023097D03*
X013210Y021897D03*
X005630Y024317D03*
X004680Y023457D03*
X004680Y022597D03*
X005130Y021377D03*
X034050Y004247D03*
X035260Y005967D03*
M02*
