%
M48
M72
T01C0.0197
T02C0.0236
T03C0.0400
T04C0.0551
T05C0.0660
T06C0.0669
%
T01
X7160Y6437
X8360Y6087
X8460Y6937
X9960Y7687
X11260Y7637
X11260Y6937
X12710Y6037
X13260Y6137
X12360Y5487
X11960Y5087
X12960Y7687
X13410Y7687
X12660Y8287
X34310Y7037
X36310Y7387
X36810Y6837
X35360Y4437
X34510Y4237
X35360Y3387
T02
X34050Y4247
X35260Y5967
X29800Y13757
X32140Y14387
X32140Y15587
X31950Y17277
X31950Y18387
X27930Y23077
X26750Y23077
X25160Y22807
X25160Y22017
X24680Y25117
X26530Y25267
X15350Y23387
X14770Y24187
X13260Y24187
X12690Y24217
X11900Y24517
X11910Y24997
X10060Y24407
X9330Y25287
X8620Y23917
X8020Y23907
X7110Y22997
X8260Y21687
X9020Y21477
X10900Y23097
X13210Y21897
X5630Y24317
X4680Y23457
X4680Y22597
X5130Y21377
X16360Y8617
X17580Y7397
T03
X3110Y3287
X3110Y4287
X3110Y5287
X3110Y6287
X3460Y19887
X3460Y20887
X3460Y21887
X3460Y22887
X3460Y23887
X3460Y24887
X19110Y23687
X19110Y22687
X23700Y23787
X23700Y24787
X23700Y25787
X23920Y22567
X23920Y21567
X29240Y18617
X29240Y17617
X29310Y16337
X29310Y15337
X29310Y14337
X31690Y4137
X31690Y3137
X29710Y2357
X29710Y1357
T04
X34980Y22967
T05
X30460Y8167
X30460Y6607
T06
X25244Y4287
X23685Y4287
X22126Y4287
X20567Y4287
X19008Y4287
X17449Y4287
X15890Y4287
X14330Y4287
X12771Y4287
X11212Y4287
X9653Y4287
X8094Y4287
X6535Y4287
X4976Y4287
X4976Y12287
X6535Y12287
X8094Y12287
X9653Y12287
X11212Y12287
X12771Y12287
X14330Y12287
X15890Y12287
X17449Y12287
X19008Y12287
X20567Y12287
X22126Y12287
X23685Y12287
X25244Y12287
M30
