G75*
G70*
%OFA0B0*%
%FSLAX24Y24*%
%IPPOS*%
%LPD*%
%AMOC8*
5,1,8,0,0,1.08239X$1,22.5*
%
%ADD10C,0.0000*%
%ADD11C,0.0030*%
%ADD12C,0.0100*%
%ADD13C,0.0060*%
%ADD14C,0.0160*%
%ADD15C,0.0040*%
%ADD16C,0.0080*%
%ADD17C,0.0200*%
%ADD18R,0.0200X0.0200*%
%ADD19R,0.0098X0.0089*%
%ADD20C,0.0120*%
%ADD21R,0.0400X0.0400*%
%ADD22C,0.0401*%
%ADD23R,0.0827X0.0059*%
%ADD24C,0.0020*%
%ADD25R,0.0059X0.0827*%
%ADD26C,0.0050*%
D10*
X000110Y000287D02*
X000110Y031783D01*
X039480Y031783D01*
X039480Y000287D01*
X000110Y000287D01*
X034704Y022967D02*
X034706Y023000D01*
X034712Y023032D01*
X034721Y023063D01*
X034734Y023093D01*
X034751Y023121D01*
X034771Y023147D01*
X034794Y023171D01*
X034819Y023191D01*
X034847Y023209D01*
X034876Y023223D01*
X034907Y023233D01*
X034939Y023240D01*
X034972Y023243D01*
X035005Y023242D01*
X035037Y023237D01*
X035068Y023228D01*
X035099Y023216D01*
X035127Y023200D01*
X035154Y023181D01*
X035178Y023159D01*
X035199Y023134D01*
X035218Y023107D01*
X035233Y023078D01*
X035244Y023048D01*
X035252Y023016D01*
X035256Y022983D01*
X035256Y022951D01*
X035252Y022918D01*
X035244Y022886D01*
X035233Y022856D01*
X035218Y022827D01*
X035199Y022800D01*
X035178Y022775D01*
X035154Y022753D01*
X035127Y022734D01*
X035099Y022718D01*
X035068Y022706D01*
X035037Y022697D01*
X035005Y022692D01*
X034972Y022691D01*
X034939Y022694D01*
X034907Y022701D01*
X034876Y022711D01*
X034847Y022725D01*
X034819Y022743D01*
X034794Y022763D01*
X034771Y022787D01*
X034751Y022813D01*
X034734Y022841D01*
X034721Y022871D01*
X034712Y022902D01*
X034706Y022934D01*
X034704Y022967D01*
D11*
X028365Y017273D02*
X028303Y017335D01*
X028056Y017335D01*
X027995Y017273D01*
X027995Y017088D01*
X028365Y017088D01*
X028365Y017273D01*
X028365Y016967D02*
X027995Y016967D01*
X027995Y016720D02*
X028365Y016967D01*
X028365Y016720D02*
X027995Y016720D01*
X028056Y016599D02*
X027995Y016537D01*
X027995Y016413D01*
X028056Y016352D01*
X028303Y016352D01*
X028365Y016413D01*
X028365Y016537D01*
X028303Y016599D01*
X028180Y016599D01*
X028180Y016475D01*
X025455Y014928D02*
X025085Y014928D01*
X025270Y014742D01*
X025270Y014989D01*
X025393Y014620D02*
X025455Y014620D01*
X025455Y014558D01*
X025393Y014558D01*
X025393Y014620D01*
X025393Y014437D02*
X025455Y014375D01*
X025455Y014252D01*
X025393Y014190D01*
X025270Y014069D02*
X025332Y014007D01*
X025332Y013822D01*
X025455Y013822D02*
X025085Y013822D01*
X025085Y014007D01*
X025146Y014069D01*
X025270Y014069D01*
X025146Y014190D02*
X025085Y014252D01*
X025085Y014375D01*
X025146Y014437D01*
X025208Y014437D01*
X025270Y014375D01*
X025332Y014437D01*
X025393Y014437D01*
X025270Y014375D02*
X025270Y014313D01*
X023805Y014292D02*
X023743Y014230D01*
X023805Y014292D02*
X023805Y014415D01*
X023743Y014477D01*
X023682Y014477D01*
X023620Y014415D01*
X023620Y014353D01*
X023620Y014415D02*
X023558Y014477D01*
X023496Y014477D01*
X023435Y014415D01*
X023435Y014292D01*
X023496Y014230D01*
X023496Y014109D02*
X023620Y014109D01*
X023682Y014047D01*
X023682Y013862D01*
X023805Y013862D02*
X023435Y013862D01*
X023435Y014047D01*
X023496Y014109D01*
X023743Y014598D02*
X023743Y014660D01*
X023805Y014660D01*
X023805Y014598D01*
X023743Y014598D01*
X023743Y014782D02*
X023805Y014844D01*
X023805Y014968D01*
X023743Y015029D01*
X023620Y015029D01*
X023558Y014968D01*
X023558Y014906D01*
X023620Y014782D01*
X023435Y014782D01*
X023435Y015029D01*
X022565Y015112D02*
X022503Y015051D01*
X022256Y015298D01*
X022503Y015298D01*
X022565Y015236D01*
X022565Y015112D01*
X022503Y015051D02*
X022256Y015051D01*
X022195Y015112D01*
X022195Y015236D01*
X022256Y015298D01*
X022013Y014939D02*
X021952Y014939D01*
X021890Y014878D01*
X021890Y014692D01*
X022013Y014692D01*
X022075Y014754D01*
X022075Y014878D01*
X022013Y014939D01*
X021766Y014816D02*
X021890Y014692D01*
X022013Y014570D02*
X022075Y014570D01*
X022075Y014508D01*
X022013Y014508D01*
X022013Y014570D01*
X022013Y014387D02*
X022075Y014325D01*
X022075Y014202D01*
X022013Y014140D01*
X021890Y014019D02*
X021766Y014019D01*
X021705Y013957D01*
X021705Y013772D01*
X022075Y013772D01*
X022195Y013762D02*
X022195Y014009D01*
X022195Y013885D02*
X022565Y013885D01*
X022565Y014130D02*
X022318Y014130D01*
X022195Y014253D01*
X022318Y014377D01*
X022565Y014377D01*
X022565Y014498D02*
X022565Y014745D01*
X022565Y014867D02*
X022565Y014928D01*
X022503Y014928D01*
X022503Y014867D01*
X022565Y014867D01*
X022565Y014622D02*
X022195Y014622D01*
X022318Y014498D01*
X022380Y014377D02*
X022380Y014130D01*
X022013Y014387D02*
X021952Y014387D01*
X021890Y014325D01*
X021890Y014263D01*
X021890Y014325D02*
X021828Y014387D01*
X021766Y014387D01*
X021705Y014325D01*
X021705Y014202D01*
X021766Y014140D01*
X021890Y014019D02*
X021952Y013957D01*
X021952Y013772D01*
X021135Y013935D02*
X020765Y013935D01*
X020765Y013812D02*
X020765Y014059D01*
X020888Y014180D02*
X020765Y014303D01*
X020888Y014427D01*
X021135Y014427D01*
X021135Y014548D02*
X021135Y014795D01*
X021135Y014917D02*
X021135Y014978D01*
X021073Y014978D01*
X021073Y014917D01*
X021135Y014917D01*
X021135Y015101D02*
X021135Y015348D01*
X021135Y015224D02*
X020765Y015224D01*
X020888Y015101D01*
X020765Y014672D02*
X021135Y014672D01*
X020888Y014548D02*
X020765Y014672D01*
X020565Y014722D02*
X020503Y014722D01*
X020256Y014969D01*
X020195Y014969D01*
X020195Y014722D01*
X020256Y014417D02*
X020195Y014355D01*
X020195Y014232D01*
X020256Y014170D01*
X020256Y014049D02*
X020380Y014049D01*
X020442Y013987D01*
X020442Y013802D01*
X020565Y013802D02*
X020195Y013802D01*
X020195Y013987D01*
X020256Y014049D01*
X020380Y014293D02*
X020380Y014355D01*
X020442Y014417D01*
X020503Y014417D01*
X020565Y014355D01*
X020565Y014232D01*
X020503Y014170D01*
X020380Y014355D02*
X020318Y014417D01*
X020256Y014417D01*
X020503Y014538D02*
X020503Y014600D01*
X020565Y014600D01*
X020565Y014538D01*
X020503Y014538D01*
X020950Y014427D02*
X020950Y014180D01*
X020888Y014180D02*
X021135Y014180D01*
X021766Y014816D02*
X021705Y014939D01*
X019185Y014988D02*
X019185Y014864D01*
X019123Y014802D01*
X019123Y014680D02*
X019185Y014680D01*
X019185Y014618D01*
X019123Y014618D01*
X019123Y014680D01*
X019185Y014497D02*
X019185Y014250D01*
X018938Y014497D01*
X018876Y014497D01*
X018815Y014435D01*
X018815Y014312D01*
X018876Y014250D01*
X018876Y014129D02*
X019000Y014129D01*
X019062Y014067D01*
X019062Y013882D01*
X019185Y013882D02*
X018815Y013882D01*
X018815Y014067D01*
X018876Y014129D01*
X018876Y014802D02*
X018815Y014864D01*
X018815Y014988D01*
X018876Y015049D01*
X018938Y015049D01*
X019000Y014988D01*
X019062Y015049D01*
X019123Y015049D01*
X019185Y014988D01*
X019000Y014988D02*
X019000Y014926D01*
X017555Y015008D02*
X017185Y015008D01*
X017370Y014822D01*
X017370Y015069D01*
X017493Y014700D02*
X017555Y014700D01*
X017555Y014638D01*
X017493Y014638D01*
X017493Y014700D01*
X017555Y014517D02*
X017555Y014270D01*
X017308Y014517D01*
X017246Y014517D01*
X017185Y014455D01*
X017185Y014332D01*
X017246Y014270D01*
X017246Y014149D02*
X017370Y014149D01*
X017432Y014087D01*
X017432Y013902D01*
X017555Y013902D02*
X017185Y013902D01*
X017185Y014087D01*
X017246Y014149D01*
X016065Y014210D02*
X016065Y014457D01*
X016065Y014578D02*
X016065Y014640D01*
X016003Y014640D01*
X016003Y014578D01*
X016065Y014578D01*
X016003Y014762D02*
X015756Y014762D01*
X015695Y014824D01*
X015695Y014948D01*
X015756Y015009D01*
X016003Y014762D01*
X016065Y014824D01*
X016065Y014948D01*
X016003Y015009D01*
X015756Y015009D01*
X014815Y015028D02*
X014815Y014967D01*
X014753Y014967D01*
X014753Y015028D01*
X014815Y015028D01*
X014753Y015151D02*
X014506Y015398D01*
X014753Y015398D01*
X014815Y015336D01*
X014815Y015212D01*
X014753Y015151D01*
X014506Y015151D01*
X014445Y015212D01*
X014445Y015336D01*
X014506Y015398D01*
X014315Y015049D02*
X014315Y014802D01*
X014315Y014680D02*
X014315Y014618D01*
X014253Y014618D01*
X014253Y014680D01*
X014315Y014680D01*
X014445Y014722D02*
X014815Y014722D01*
X014815Y014845D02*
X014815Y014598D01*
X014815Y014477D02*
X014568Y014477D01*
X014445Y014353D01*
X014568Y014230D01*
X014815Y014230D01*
X014630Y014230D02*
X014630Y014477D01*
X014568Y014598D02*
X014445Y014722D01*
X014315Y014926D02*
X013945Y014926D01*
X014068Y014802D01*
X014315Y014497D02*
X014315Y014250D01*
X014315Y014373D02*
X013945Y014373D01*
X014068Y014250D01*
X014006Y014129D02*
X014130Y014129D01*
X014192Y014067D01*
X014192Y013882D01*
X014315Y013882D02*
X013945Y013882D01*
X013945Y014067D01*
X014006Y014129D01*
X014445Y014109D02*
X014445Y013862D01*
X014445Y013985D02*
X014815Y013985D01*
X015695Y014027D02*
X015756Y014089D01*
X015880Y014089D01*
X015942Y014027D01*
X015942Y013842D01*
X016065Y013842D02*
X015695Y013842D01*
X015695Y014027D01*
X015818Y014210D02*
X015695Y014333D01*
X016065Y014333D01*
X013265Y014250D02*
X013018Y014250D01*
X012895Y014373D01*
X013018Y014497D01*
X013265Y014497D01*
X013203Y014618D02*
X012956Y014865D01*
X013203Y014865D01*
X013265Y014803D01*
X013265Y014680D01*
X013203Y014618D01*
X012956Y014618D01*
X012895Y014680D01*
X012895Y014803D01*
X012956Y014865D01*
X013203Y014987D02*
X013203Y015048D01*
X013265Y015048D01*
X013265Y014987D01*
X013203Y014987D01*
X013265Y015171D02*
X013265Y015418D01*
X013265Y015294D02*
X012895Y015294D01*
X013018Y015171D01*
X012685Y015059D02*
X012685Y014812D01*
X012438Y015059D01*
X012376Y015059D01*
X012315Y014998D01*
X012315Y014874D01*
X012376Y014812D01*
X012623Y014690D02*
X012685Y014690D01*
X012685Y014628D01*
X012623Y014628D01*
X012623Y014690D01*
X012685Y014507D02*
X012685Y014260D01*
X012685Y014383D02*
X012315Y014383D01*
X012438Y014260D01*
X012376Y014139D02*
X012500Y014139D01*
X012562Y014077D01*
X012562Y013892D01*
X012685Y013892D02*
X012315Y013892D01*
X012315Y014077D01*
X012376Y014139D01*
X012895Y014129D02*
X012895Y013882D01*
X012895Y014005D02*
X013265Y014005D01*
X013080Y014250D02*
X013080Y014497D01*
X011765Y014497D02*
X011518Y014497D01*
X011395Y014373D01*
X011518Y014250D01*
X011765Y014250D01*
X011580Y014250D02*
X011580Y014497D01*
X011703Y014618D02*
X011456Y014865D01*
X011703Y014865D01*
X011765Y014803D01*
X011765Y014680D01*
X011703Y014618D01*
X011456Y014618D01*
X011395Y014680D01*
X011395Y014803D01*
X011456Y014865D01*
X011235Y014894D02*
X011173Y014832D01*
X011235Y014894D02*
X011235Y015018D01*
X011173Y015079D01*
X011112Y015079D01*
X011050Y015018D01*
X011050Y014956D01*
X011050Y015018D02*
X010988Y015079D01*
X010926Y015079D01*
X010865Y015018D01*
X010865Y014894D01*
X010926Y014832D01*
X011173Y014710D02*
X011173Y014648D01*
X011235Y014648D01*
X011235Y014710D01*
X011173Y014710D01*
X011235Y014527D02*
X011235Y014280D01*
X011235Y014403D02*
X010865Y014403D01*
X010988Y014280D01*
X010926Y014159D02*
X011050Y014159D01*
X011112Y014097D01*
X011112Y013912D01*
X011235Y013912D02*
X010865Y013912D01*
X010865Y014097D01*
X010926Y014159D01*
X011395Y014129D02*
X011395Y013882D01*
X011395Y014005D02*
X011765Y014005D01*
X011765Y014987D02*
X011765Y015048D01*
X011703Y015048D01*
X011703Y014987D01*
X011765Y014987D01*
X011765Y015171D02*
X011518Y015418D01*
X011456Y015418D01*
X011395Y015356D01*
X011395Y015232D01*
X011456Y015171D01*
X011765Y015171D02*
X011765Y015418D01*
X009735Y015028D02*
X009365Y015028D01*
X009550Y014842D01*
X009550Y015089D01*
X009673Y014720D02*
X009735Y014720D01*
X009735Y014658D01*
X009673Y014658D01*
X009673Y014720D01*
X009735Y014537D02*
X009735Y014290D01*
X009735Y014413D02*
X009365Y014413D01*
X009488Y014290D01*
X009426Y014169D02*
X009550Y014169D01*
X009612Y014107D01*
X009612Y013922D01*
X009735Y013922D02*
X009365Y013922D01*
X009365Y014107D01*
X009426Y014169D01*
X008235Y014270D02*
X008235Y014517D01*
X008235Y014638D02*
X008235Y014700D01*
X008173Y014700D01*
X008173Y014638D01*
X008235Y014638D01*
X008173Y014822D02*
X008235Y014884D01*
X008235Y015008D01*
X008173Y015069D01*
X008050Y015069D01*
X007988Y015008D01*
X007988Y014946D01*
X008050Y014822D01*
X007865Y014822D01*
X007865Y015069D01*
X007865Y014393D02*
X008235Y014393D01*
X007988Y014270D02*
X007865Y014393D01*
X007926Y014149D02*
X008050Y014149D01*
X008112Y014087D01*
X008112Y013902D01*
X008235Y013902D02*
X007865Y013902D01*
X007865Y014087D01*
X007926Y014149D01*
X006645Y014330D02*
X006645Y014577D01*
X006645Y014698D02*
X006645Y014760D01*
X006583Y014760D01*
X006583Y014698D01*
X006645Y014698D01*
X006583Y014882D02*
X006645Y014944D01*
X006645Y015068D01*
X006583Y015129D01*
X006522Y015129D01*
X006460Y015068D01*
X006460Y014882D01*
X006583Y014882D01*
X006460Y014882D02*
X006336Y015006D01*
X006275Y015129D01*
X006275Y014453D02*
X006645Y014453D01*
X006398Y014330D02*
X006275Y014453D01*
X006336Y014209D02*
X006460Y014209D01*
X006522Y014147D01*
X006522Y013962D01*
X006645Y013962D02*
X006275Y013962D01*
X006275Y014147D01*
X006336Y014209D01*
X005015Y014330D02*
X005015Y014577D01*
X005015Y014698D02*
X005015Y014760D01*
X004953Y014760D01*
X004953Y014698D01*
X005015Y014698D01*
X005015Y014882D02*
X004953Y014882D01*
X004706Y015129D01*
X004645Y015129D01*
X004645Y014882D01*
X004645Y014453D02*
X005015Y014453D01*
X004768Y014330D02*
X004645Y014453D01*
X004706Y014209D02*
X004830Y014209D01*
X004892Y014147D01*
X004892Y013962D01*
X005015Y013962D02*
X004645Y013962D01*
X004645Y014147D01*
X004706Y014209D01*
X003463Y018472D02*
X003525Y018533D01*
X003525Y018595D01*
X003463Y018657D01*
X003155Y018657D01*
X003155Y018595D02*
X003155Y018719D01*
X003155Y018840D02*
X003155Y019087D01*
X003216Y019087D01*
X003463Y018840D01*
X003525Y018840D01*
X002495Y019163D02*
X002433Y019102D01*
X002186Y019102D01*
X002125Y019163D01*
X002125Y019287D01*
X002186Y019349D01*
X002310Y019349D02*
X002310Y019225D01*
X002310Y019349D02*
X002433Y019349D01*
X002495Y019287D01*
X002495Y019163D01*
X002495Y019470D02*
X002125Y019470D01*
X002495Y019717D01*
X002125Y019717D01*
X002125Y019838D02*
X002125Y020023D01*
X002186Y020085D01*
X002433Y020085D01*
X002495Y020023D01*
X002495Y019838D01*
X002125Y019838D01*
X002348Y020733D02*
X002348Y020980D01*
X002225Y020857D02*
X002472Y020857D01*
X002493Y021262D02*
X002246Y021262D01*
X002185Y021323D01*
X002185Y021447D01*
X002246Y021509D01*
X002185Y021630D02*
X002555Y021630D01*
X002555Y021877D01*
X002555Y021998D02*
X002185Y021998D01*
X002370Y022060D02*
X002555Y022245D01*
X002395Y022432D02*
X002025Y022432D01*
X002025Y022617D01*
X002086Y022679D01*
X002333Y022679D01*
X002395Y022617D01*
X002395Y022432D01*
X002185Y022245D02*
X002432Y021998D01*
X002493Y021509D02*
X002555Y021447D01*
X002555Y021323D01*
X002493Y021262D01*
X002395Y022800D02*
X002395Y022923D01*
X002395Y022862D02*
X002025Y022862D01*
X002025Y022923D02*
X002025Y022800D01*
X002025Y023046D02*
X002395Y023292D01*
X002025Y023292D01*
X002025Y023046D02*
X002395Y023046D01*
X002333Y023542D02*
X002395Y023603D01*
X002395Y023727D01*
X002333Y023789D01*
X002333Y023910D02*
X002395Y023972D01*
X002395Y024095D01*
X002333Y024157D01*
X002272Y024157D01*
X002210Y024095D01*
X002210Y023972D01*
X002148Y023910D01*
X002086Y023910D01*
X002025Y023972D01*
X002025Y024095D01*
X002086Y024157D01*
X002086Y023789D02*
X002025Y023727D01*
X002025Y023603D01*
X002086Y023542D01*
X002333Y023542D01*
X002273Y024522D02*
X002335Y024583D01*
X002335Y024707D01*
X002273Y024769D01*
X002150Y024769D01*
X002088Y024707D01*
X002088Y024583D01*
X002150Y024522D01*
X002273Y024522D01*
X002273Y024890D02*
X002335Y024952D01*
X002335Y025137D01*
X002088Y025137D01*
X002088Y025258D02*
X002088Y025382D01*
X002026Y025320D02*
X002273Y025320D01*
X002335Y025382D01*
X002273Y024890D02*
X002088Y024890D01*
X005170Y024660D02*
X005170Y024413D01*
X005232Y024352D01*
X005355Y024352D01*
X005417Y024413D01*
X005538Y024352D02*
X005785Y024352D01*
X005907Y024352D02*
X005907Y024413D01*
X006154Y024660D01*
X006154Y024722D01*
X005907Y024722D01*
X005662Y024722D02*
X005662Y024352D01*
X005538Y024599D02*
X005662Y024722D01*
X005417Y024660D02*
X005355Y024722D01*
X005232Y024722D01*
X005170Y024660D01*
X006775Y025508D02*
X006836Y025447D01*
X007083Y025447D01*
X007145Y025508D01*
X007145Y025632D01*
X007083Y025694D01*
X007145Y025815D02*
X007145Y026062D01*
X007145Y025938D02*
X006775Y025938D01*
X006898Y025815D01*
X006836Y025694D02*
X006775Y025632D01*
X006775Y025508D01*
X006775Y026183D02*
X006960Y026183D01*
X006898Y026307D01*
X006898Y026369D01*
X006960Y026430D01*
X007083Y026430D01*
X007145Y026369D01*
X007145Y026245D01*
X007083Y026183D01*
X006775Y026183D02*
X006775Y026430D01*
X007625Y026562D02*
X007748Y026438D01*
X007748Y026317D02*
X007686Y026317D01*
X007625Y026255D01*
X007625Y026132D01*
X007686Y026070D01*
X007686Y025949D02*
X007810Y025949D01*
X007872Y025887D01*
X007872Y025702D01*
X007995Y025702D02*
X007625Y025702D01*
X007625Y025887D01*
X007686Y025949D01*
X007872Y025825D02*
X007995Y025949D01*
X007995Y026070D02*
X007748Y026317D01*
X007995Y026317D02*
X007995Y026070D01*
X007995Y026438D02*
X007995Y026685D01*
X007995Y026562D02*
X007625Y026562D01*
X008875Y026169D02*
X008875Y026045D01*
X008936Y025983D01*
X008998Y025983D01*
X009060Y026045D01*
X009060Y026169D01*
X009122Y026230D01*
X009183Y026230D01*
X009245Y026169D01*
X009245Y026045D01*
X009183Y025983D01*
X009122Y025983D01*
X009060Y026045D01*
X009060Y026169D02*
X008998Y026230D01*
X008936Y026230D01*
X008875Y026169D01*
X009245Y025862D02*
X009245Y025615D01*
X009245Y025738D02*
X008875Y025738D01*
X008998Y025615D01*
X008936Y025494D02*
X008875Y025432D01*
X008875Y025308D01*
X008936Y025247D01*
X009183Y025247D01*
X009245Y025308D01*
X009245Y025432D01*
X009183Y025494D01*
X007945Y024988D02*
X007883Y024988D01*
X007636Y025235D01*
X007575Y025235D01*
X007575Y024988D01*
X007575Y024743D02*
X007945Y024743D01*
X007945Y024620D02*
X007945Y024867D01*
X007698Y024620D02*
X007575Y024743D01*
X007636Y024499D02*
X007760Y024499D01*
X007822Y024437D01*
X007822Y024252D01*
X007945Y024252D02*
X007575Y024252D01*
X007575Y024437D01*
X007636Y024499D01*
X007822Y024375D02*
X007945Y024499D01*
X007910Y024012D02*
X007787Y024012D01*
X007725Y023950D01*
X007725Y023703D01*
X007787Y023642D01*
X007910Y023642D01*
X007972Y023703D01*
X008093Y023642D02*
X008340Y023642D01*
X008217Y023642D02*
X008217Y024012D01*
X008093Y023889D01*
X007972Y023950D02*
X007910Y024012D01*
X008462Y023950D02*
X008523Y024012D01*
X008647Y024012D01*
X008709Y023950D01*
X008709Y023889D01*
X008647Y023827D01*
X008709Y023765D01*
X008709Y023703D01*
X008647Y023642D01*
X008523Y023642D01*
X008462Y023703D01*
X008585Y023827D02*
X008647Y023827D01*
X007445Y022623D02*
X007383Y022685D01*
X007136Y022685D01*
X007383Y022438D01*
X007445Y022500D01*
X007445Y022623D01*
X007383Y022438D02*
X007136Y022438D01*
X007075Y022500D01*
X007075Y022623D01*
X007136Y022685D01*
X007136Y022317D02*
X007075Y022255D01*
X007075Y022132D01*
X007136Y022070D01*
X007136Y021949D02*
X007260Y021949D01*
X007322Y021887D01*
X007322Y021702D01*
X007445Y021702D02*
X007075Y021702D01*
X007075Y021887D01*
X007136Y021949D01*
X007322Y021825D02*
X007445Y021949D01*
X007445Y022070D02*
X007198Y022317D01*
X007136Y022317D01*
X007445Y022317D02*
X007445Y022070D01*
X007675Y021872D02*
X007860Y021872D01*
X007922Y021810D01*
X007922Y021687D01*
X007860Y021625D01*
X007675Y021625D01*
X007675Y021502D02*
X007675Y021872D01*
X007798Y021625D02*
X007922Y021502D01*
X008043Y021502D02*
X008290Y021502D01*
X008167Y021502D02*
X008167Y021872D01*
X008043Y021749D01*
X008412Y021749D02*
X008412Y021810D01*
X008473Y021872D01*
X008597Y021872D01*
X008659Y021810D01*
X008659Y021749D01*
X008597Y021687D01*
X008473Y021687D01*
X008412Y021749D01*
X008473Y021687D02*
X008412Y021625D01*
X008412Y021563D01*
X008473Y021502D01*
X008597Y021502D01*
X008659Y021563D01*
X008659Y021625D01*
X008597Y021687D01*
X009825Y021572D02*
X009825Y021263D01*
X009887Y021202D01*
X010010Y021202D01*
X010072Y021263D01*
X010072Y021572D01*
X010193Y021510D02*
X010255Y021572D01*
X010378Y021572D01*
X010440Y021510D01*
X010378Y021387D02*
X010255Y021387D01*
X010193Y021449D01*
X010193Y021510D01*
X010317Y021634D02*
X010317Y021140D01*
X010378Y021202D02*
X010440Y021263D01*
X010440Y021325D01*
X010378Y021387D01*
X010562Y021387D02*
X010809Y021387D01*
X010747Y021572D02*
X010562Y021387D01*
X010378Y021202D02*
X010255Y021202D01*
X010193Y021263D01*
X010747Y021202D02*
X010747Y021572D01*
X011920Y021852D02*
X011920Y022222D01*
X012105Y022222D01*
X012167Y022160D01*
X012167Y022037D01*
X012105Y021975D01*
X011920Y021975D01*
X012043Y021975D02*
X012167Y021852D01*
X012288Y021852D02*
X012535Y022099D01*
X012535Y022160D01*
X012474Y022222D01*
X012350Y022222D01*
X012288Y022160D01*
X012288Y021852D02*
X012535Y021852D01*
X012657Y021852D02*
X012904Y022099D01*
X012904Y022160D01*
X012842Y022222D01*
X012718Y022222D01*
X012657Y022160D01*
X012657Y021852D02*
X012904Y021852D01*
X012345Y021535D02*
X012345Y021288D01*
X012345Y021167D02*
X012345Y020920D01*
X012345Y021043D02*
X011975Y021043D01*
X012098Y020920D01*
X012036Y020799D02*
X011975Y020737D01*
X011975Y020613D01*
X012036Y020552D01*
X012283Y020552D01*
X012345Y020613D01*
X012345Y020737D01*
X012283Y020799D01*
X012098Y021288D02*
X011975Y021412D01*
X012345Y021412D01*
X013420Y021122D02*
X013420Y020752D01*
X013420Y020875D02*
X013605Y020875D01*
X013667Y020937D01*
X013667Y021060D01*
X013605Y021122D01*
X013420Y021122D01*
X013543Y020875D02*
X013667Y020752D01*
X013788Y020752D02*
X014035Y020752D01*
X013912Y020752D02*
X013912Y021122D01*
X013788Y020999D01*
X014157Y020937D02*
X014404Y020937D01*
X014342Y020752D02*
X014342Y021122D01*
X014157Y020937D01*
X014067Y019922D02*
X014067Y019552D01*
X014190Y019552D02*
X013943Y019552D01*
X013822Y019552D02*
X013698Y019675D01*
X013760Y019675D02*
X013575Y019675D01*
X013575Y019552D02*
X013575Y019922D01*
X013760Y019922D01*
X013822Y019860D01*
X013822Y019737D01*
X013760Y019675D01*
X013943Y019799D02*
X014067Y019922D01*
X014312Y019922D02*
X014312Y019737D01*
X014435Y019799D01*
X014497Y019799D01*
X014559Y019737D01*
X014559Y019613D01*
X014497Y019552D01*
X014373Y019552D01*
X014312Y019613D01*
X014312Y019922D02*
X014559Y019922D01*
X015575Y020613D02*
X015575Y020737D01*
X015636Y020799D01*
X015698Y020920D02*
X015575Y021043D01*
X015945Y021043D01*
X015945Y020920D02*
X015945Y021167D01*
X015883Y021288D02*
X015636Y021535D01*
X015883Y021535D01*
X015945Y021473D01*
X015945Y021350D01*
X015883Y021288D01*
X015636Y021288D01*
X015575Y021350D01*
X015575Y021473D01*
X015636Y021535D01*
X015883Y020799D02*
X015945Y020737D01*
X015945Y020613D01*
X015883Y020552D01*
X015636Y020552D01*
X015575Y020613D01*
X016625Y021102D02*
X016625Y021287D01*
X016686Y021349D01*
X016810Y021349D01*
X016872Y021287D01*
X016872Y021102D01*
X016995Y021102D02*
X016625Y021102D01*
X016872Y021225D02*
X016995Y021349D01*
X016995Y021470D02*
X016995Y021717D01*
X016995Y021838D02*
X016748Y022085D01*
X016686Y022085D01*
X016625Y022023D01*
X016625Y021900D01*
X016686Y021838D01*
X016625Y021593D02*
X016995Y021593D01*
X016995Y021838D02*
X016995Y022085D01*
X017575Y022123D02*
X017636Y022185D01*
X017883Y021938D01*
X017945Y022000D01*
X017945Y022123D01*
X017883Y022185D01*
X017636Y022185D01*
X017575Y022123D02*
X017575Y022000D01*
X017636Y021938D01*
X017883Y021938D01*
X017945Y021817D02*
X017945Y021570D01*
X017945Y021449D02*
X017822Y021325D01*
X017822Y021387D02*
X017822Y021202D01*
X017945Y021202D02*
X017575Y021202D01*
X017575Y021387D01*
X017636Y021449D01*
X017760Y021449D01*
X017822Y021387D01*
X017698Y021570D02*
X017575Y021693D01*
X017945Y021693D01*
X018765Y021675D02*
X018765Y021799D01*
X018765Y021737D02*
X019073Y021737D01*
X019135Y021675D01*
X019135Y021613D01*
X019073Y021552D01*
X019073Y021920D02*
X018950Y021920D01*
X018950Y022105D01*
X019012Y022167D01*
X019073Y022167D01*
X019135Y022105D01*
X019135Y021982D01*
X019073Y021920D01*
X018950Y021920D02*
X018826Y022043D01*
X018765Y022167D01*
X019948Y022282D02*
X020195Y022282D01*
X020072Y022282D02*
X019948Y022405D01*
X019948Y022467D01*
X020010Y022589D02*
X019948Y022650D01*
X019948Y022774D01*
X020010Y022835D01*
X020072Y022835D01*
X020072Y022589D01*
X020133Y022589D02*
X020010Y022589D01*
X020133Y022589D02*
X020195Y022650D01*
X020195Y022774D01*
X020133Y022957D02*
X020195Y023019D01*
X020195Y023204D01*
X020133Y023325D02*
X020010Y023325D01*
X019948Y023387D01*
X019948Y023510D01*
X020010Y023572D01*
X020072Y023572D01*
X020072Y023325D01*
X020133Y023325D02*
X020195Y023387D01*
X020195Y023510D01*
X020195Y023694D02*
X020195Y023817D01*
X020195Y023755D02*
X019948Y023755D01*
X019948Y023694D01*
X019825Y023755D02*
X019763Y023755D01*
X019948Y023939D02*
X020195Y024063D01*
X019948Y024186D01*
X020010Y024307D02*
X019948Y024369D01*
X019948Y024493D01*
X020010Y024554D01*
X020072Y024554D01*
X020072Y024307D01*
X020133Y024307D02*
X020010Y024307D01*
X020133Y024307D02*
X020195Y024369D01*
X020195Y024493D01*
X019948Y023204D02*
X019948Y023019D01*
X020010Y022957D01*
X020133Y022957D01*
X022515Y023013D02*
X022576Y022952D01*
X022823Y022952D01*
X022885Y023013D01*
X022885Y023137D01*
X022823Y023199D01*
X022700Y023199D01*
X022700Y023075D01*
X022576Y023199D02*
X022515Y023137D01*
X022515Y023013D01*
X022515Y023320D02*
X022885Y023567D01*
X022515Y023567D01*
X022515Y023688D02*
X022515Y023873D01*
X022576Y023935D01*
X022823Y023935D01*
X022885Y023873D01*
X022885Y023688D01*
X022515Y023688D01*
X022515Y023320D02*
X022885Y023320D01*
X022680Y022499D02*
X022680Y022252D01*
X022803Y022375D02*
X022556Y022375D01*
X022716Y021885D02*
X022655Y021823D01*
X022655Y021638D01*
X023025Y021638D01*
X023025Y021823D01*
X022963Y021885D01*
X022716Y021885D01*
X022655Y021517D02*
X023025Y021517D01*
X022655Y021270D01*
X023025Y021270D01*
X022963Y021149D02*
X023025Y021087D01*
X023025Y020963D01*
X022963Y020902D01*
X022716Y020902D01*
X022655Y020963D01*
X022655Y021087D01*
X022716Y021149D01*
X022840Y021149D02*
X022840Y021025D01*
X022840Y021149D02*
X022963Y021149D01*
X022683Y024362D02*
X022745Y024423D01*
X022745Y024547D01*
X022683Y024609D01*
X022622Y024609D01*
X022560Y024547D01*
X022560Y024423D01*
X022498Y024362D01*
X022436Y024362D01*
X022375Y024423D01*
X022375Y024547D01*
X022436Y024609D01*
X022375Y024730D02*
X022375Y024915D01*
X022436Y024977D01*
X022683Y024977D01*
X022745Y024915D01*
X022745Y024730D01*
X022375Y024730D01*
X022498Y025098D02*
X022375Y025222D01*
X022498Y025345D01*
X022745Y025345D01*
X022560Y025345D02*
X022560Y025098D01*
X022498Y025098D02*
X022745Y025098D01*
X022678Y025652D02*
X022740Y025713D01*
X022740Y025837D01*
X022802Y025899D01*
X022863Y025899D01*
X022925Y025837D01*
X022925Y025713D01*
X022863Y025652D01*
X022678Y025652D02*
X022616Y025652D01*
X022555Y025713D01*
X022555Y025837D01*
X022616Y025899D01*
X022616Y026020D02*
X022863Y026020D01*
X022925Y026082D01*
X022925Y026205D01*
X022863Y026267D01*
X022925Y026388D02*
X022925Y026635D01*
X022925Y026388D02*
X022555Y026388D01*
X022616Y026267D02*
X022555Y026205D01*
X022555Y026082D01*
X022616Y026020D01*
X017590Y024710D02*
X017590Y024649D01*
X017528Y024587D01*
X017405Y024587D01*
X017343Y024649D01*
X017343Y024710D01*
X017405Y024772D01*
X017528Y024772D01*
X017590Y024710D01*
X017528Y024587D02*
X017590Y024525D01*
X017590Y024463D01*
X017528Y024402D01*
X017405Y024402D01*
X017343Y024463D01*
X017343Y024525D01*
X017405Y024587D01*
X017222Y024710D02*
X017160Y024772D01*
X017037Y024772D01*
X016975Y024710D01*
X016975Y024463D01*
X017037Y024402D01*
X017160Y024402D01*
X017222Y024463D01*
X015645Y024517D02*
X015645Y024270D01*
X015645Y024149D02*
X015522Y024025D01*
X015522Y024087D02*
X015522Y023902D01*
X015645Y023902D02*
X015275Y023902D01*
X015275Y024087D01*
X015336Y024149D01*
X015460Y024149D01*
X015522Y024087D01*
X015398Y024270D02*
X015275Y024393D01*
X015645Y024393D01*
X015583Y024638D02*
X015645Y024700D01*
X015645Y024823D01*
X015583Y024885D01*
X015522Y024885D01*
X015460Y024823D01*
X015460Y024762D01*
X015460Y024823D02*
X015398Y024885D01*
X015336Y024885D01*
X015275Y024823D01*
X015275Y024700D01*
X015336Y024638D01*
X015037Y024392D02*
X014913Y024392D01*
X014852Y024330D01*
X014730Y024330D02*
X014668Y024392D01*
X014545Y024392D01*
X014483Y024330D01*
X014362Y024330D02*
X014300Y024392D01*
X014177Y024392D01*
X014115Y024330D01*
X014115Y024083D01*
X014177Y024022D01*
X014300Y024022D01*
X014362Y024083D01*
X014483Y024022D02*
X014730Y024269D01*
X014730Y024330D01*
X014730Y024022D02*
X014483Y024022D01*
X014852Y024022D02*
X015099Y024269D01*
X015099Y024330D01*
X015037Y024392D01*
X015099Y024022D02*
X014852Y024022D01*
X014945Y023192D02*
X014945Y022822D01*
X014822Y022822D02*
X015069Y022822D01*
X015225Y022882D02*
X015225Y023005D01*
X015286Y023067D01*
X015533Y023067D01*
X015595Y023005D01*
X015595Y022882D01*
X015533Y022820D01*
X015533Y022699D02*
X015595Y022637D01*
X015595Y022513D01*
X015533Y022452D01*
X015286Y022452D01*
X015225Y022513D01*
X015225Y022637D01*
X015286Y022699D01*
X015286Y022820D02*
X015348Y022820D01*
X015410Y022882D01*
X015410Y023067D01*
X015225Y022882D02*
X015286Y022820D01*
X014945Y023192D02*
X014822Y023069D01*
X014700Y023069D02*
X014700Y023130D01*
X014638Y023192D01*
X014515Y023192D01*
X014453Y023130D01*
X014332Y023130D02*
X014270Y023192D01*
X014147Y023192D01*
X014085Y023130D01*
X014085Y022883D01*
X014147Y022822D01*
X014270Y022822D01*
X014332Y022883D01*
X014453Y022822D02*
X014700Y023069D01*
X014700Y022822D02*
X014453Y022822D01*
X013359Y023913D02*
X013297Y023852D01*
X013173Y023852D01*
X013112Y023913D01*
X013359Y024160D01*
X013359Y023913D01*
X013359Y024160D02*
X013297Y024222D01*
X013173Y024222D01*
X013112Y024160D01*
X013112Y023913D01*
X012990Y023852D02*
X012743Y023852D01*
X012990Y024099D01*
X012990Y024160D01*
X012928Y024222D01*
X012805Y024222D01*
X012743Y024160D01*
X012622Y024160D02*
X012560Y024222D01*
X012437Y024222D01*
X012375Y024160D01*
X012375Y023913D01*
X012437Y023852D01*
X012560Y023852D01*
X012622Y023913D01*
X012622Y025052D02*
X012498Y025175D01*
X012560Y025175D02*
X012375Y025175D01*
X012375Y025052D02*
X012375Y025422D01*
X012560Y025422D01*
X012622Y025360D01*
X012622Y025237D01*
X012560Y025175D01*
X012743Y025052D02*
X012990Y025299D01*
X012990Y025360D01*
X012928Y025422D01*
X012805Y025422D01*
X012743Y025360D01*
X012743Y025052D02*
X012990Y025052D01*
X013112Y025113D02*
X013173Y025052D01*
X013297Y025052D01*
X013359Y025113D01*
X013359Y025175D01*
X013297Y025237D01*
X013235Y025237D01*
X013297Y025237D02*
X013359Y025299D01*
X013359Y025360D01*
X013297Y025422D01*
X013173Y025422D01*
X013112Y025360D01*
X013955Y025470D02*
X013955Y025223D01*
X014017Y025162D01*
X014140Y025162D01*
X014202Y025223D01*
X014323Y025162D02*
X014570Y025409D01*
X014570Y025470D01*
X014508Y025532D01*
X014385Y025532D01*
X014323Y025470D01*
X014202Y025470D02*
X014140Y025532D01*
X014017Y025532D01*
X013955Y025470D01*
X014323Y025162D02*
X014570Y025162D01*
X014692Y025223D02*
X014753Y025162D01*
X014877Y025162D01*
X014939Y025223D01*
X014939Y025285D01*
X014877Y025347D01*
X014815Y025347D01*
X014877Y025347D02*
X014939Y025409D01*
X014939Y025470D01*
X014877Y025532D01*
X014753Y025532D01*
X014692Y025470D01*
X014590Y026392D02*
X014343Y026392D01*
X014590Y026639D01*
X014590Y026700D01*
X014528Y026762D01*
X014405Y026762D01*
X014343Y026700D01*
X014222Y026700D02*
X014160Y026762D01*
X014037Y026762D01*
X013975Y026700D01*
X013975Y026453D01*
X014037Y026392D01*
X014160Y026392D01*
X014222Y026453D01*
X014712Y026577D02*
X014959Y026577D01*
X014897Y026762D02*
X014712Y026577D01*
X014897Y026392D02*
X014897Y026762D01*
X012095Y026323D02*
X012033Y026385D01*
X011786Y026385D01*
X011725Y026323D01*
X011725Y026200D01*
X011786Y026138D01*
X011848Y026138D01*
X011910Y026200D01*
X011910Y026385D01*
X012095Y026323D02*
X012095Y026200D01*
X012033Y026138D01*
X012095Y026017D02*
X012095Y025770D01*
X012095Y025649D02*
X011972Y025525D01*
X011972Y025587D02*
X011972Y025402D01*
X012095Y025402D02*
X011725Y025402D01*
X011725Y025587D01*
X011786Y025649D01*
X011910Y025649D01*
X011972Y025587D01*
X011848Y025770D02*
X011725Y025893D01*
X012095Y025893D01*
X011695Y025912D02*
X011695Y025665D01*
X011695Y025788D02*
X011325Y025788D01*
X011448Y025665D01*
X011386Y025544D02*
X011325Y025482D01*
X011325Y025358D01*
X011386Y025297D01*
X011633Y025297D01*
X011695Y025358D01*
X011695Y025482D01*
X011633Y025544D01*
X011633Y026033D02*
X011695Y026095D01*
X011695Y026219D01*
X011633Y026280D01*
X011572Y026280D01*
X011510Y026219D01*
X011510Y026033D01*
X011633Y026033D01*
X011510Y026033D02*
X011386Y026157D01*
X011325Y026280D01*
X010350Y028232D02*
X010103Y028232D01*
X010350Y028479D01*
X010350Y028540D01*
X010288Y028602D01*
X010165Y028602D01*
X010103Y028540D01*
X009982Y028540D02*
X009920Y028602D01*
X009735Y028602D01*
X009735Y028232D01*
X009920Y028232D01*
X009982Y028293D01*
X009982Y028540D01*
X009054Y028060D02*
X009054Y027813D01*
X008992Y027752D01*
X008868Y027752D01*
X008807Y027813D01*
X008685Y027752D02*
X008438Y027752D01*
X008562Y027752D02*
X008562Y028122D01*
X008438Y027999D01*
X008317Y028060D02*
X008255Y028122D01*
X008132Y028122D01*
X008070Y028060D01*
X008070Y027813D01*
X008132Y027752D01*
X008255Y027752D01*
X008317Y027813D01*
X008807Y027999D02*
X008868Y027937D01*
X009054Y027937D01*
X009054Y028060D02*
X008992Y028122D01*
X008868Y028122D01*
X008807Y028060D01*
X008807Y027999D01*
X016625Y021593D02*
X016748Y021470D01*
X011454Y020160D02*
X011392Y020222D01*
X011268Y020222D01*
X011207Y020160D01*
X011454Y020160D02*
X011454Y020099D01*
X011207Y019852D01*
X011454Y019852D01*
X011085Y019852D02*
X010838Y019852D01*
X010962Y019852D02*
X010962Y020222D01*
X010838Y020099D01*
X010717Y020160D02*
X010655Y020222D01*
X010532Y020222D01*
X010470Y020160D01*
X010470Y019913D01*
X010532Y019852D01*
X010655Y019852D01*
X010717Y019913D01*
X010004Y019963D02*
X010004Y020025D01*
X009942Y020087D01*
X009757Y020087D01*
X009757Y019963D01*
X009818Y019902D01*
X009942Y019902D01*
X010004Y019963D01*
X009880Y020210D02*
X009757Y020087D01*
X009880Y020210D02*
X010004Y020272D01*
X009635Y019902D02*
X009388Y019902D01*
X009267Y019902D02*
X009143Y020025D01*
X009205Y020025D02*
X009020Y020025D01*
X009020Y019902D02*
X009020Y020272D01*
X009205Y020272D01*
X009267Y020210D01*
X009267Y020087D01*
X009205Y020025D01*
X009388Y020149D02*
X009512Y020272D01*
X009512Y019902D01*
X008204Y019587D02*
X007957Y019587D01*
X008142Y019772D01*
X008142Y019402D01*
X007835Y019402D02*
X007588Y019402D01*
X007712Y019402D02*
X007712Y019772D01*
X007588Y019649D01*
X007467Y019710D02*
X007405Y019772D01*
X007282Y019772D01*
X007220Y019710D01*
X007220Y019463D01*
X007282Y019402D01*
X007405Y019402D01*
X007467Y019463D01*
X001988Y006420D02*
X001988Y006173D01*
X001865Y006297D02*
X002112Y006297D01*
X002153Y005715D02*
X001906Y005715D01*
X001845Y005653D01*
X001845Y005468D01*
X002215Y005468D01*
X002215Y005653D01*
X002153Y005715D01*
X002215Y005347D02*
X001845Y005347D01*
X001845Y005100D02*
X002215Y005347D01*
X002215Y005100D02*
X001845Y005100D01*
X001906Y004979D02*
X001845Y004917D01*
X001845Y004793D01*
X001906Y004732D01*
X002153Y004732D01*
X002215Y004793D01*
X002215Y004917D01*
X002153Y004979D01*
X002030Y004979D01*
X002030Y004855D01*
X002063Y004514D02*
X001816Y004514D01*
X001755Y004452D01*
X001755Y004329D01*
X001816Y004267D01*
X002063Y004267D01*
X002125Y004329D01*
X002125Y004452D01*
X002063Y004514D01*
X002125Y004145D02*
X002125Y004022D01*
X002125Y004083D02*
X001755Y004083D01*
X001755Y004022D02*
X001755Y004145D01*
X001795Y003645D02*
X002042Y003398D01*
X001980Y003460D02*
X002165Y003645D01*
X002165Y003398D02*
X001795Y003398D01*
X001856Y003277D02*
X001795Y003215D01*
X001795Y003092D01*
X001856Y003030D01*
X002103Y003030D01*
X002165Y003092D01*
X002165Y003215D01*
X002103Y003277D01*
X001795Y002909D02*
X001795Y002662D01*
X001795Y002785D02*
X002165Y002785D01*
X004685Y001995D02*
X004932Y001748D01*
X004870Y001810D02*
X005055Y001995D01*
X005055Y001748D02*
X004685Y001748D01*
X004746Y001627D02*
X004685Y001565D01*
X004685Y001442D01*
X004746Y001380D01*
X004993Y001380D01*
X005055Y001442D01*
X005055Y001565D01*
X004993Y001627D01*
X004685Y001259D02*
X004685Y001012D01*
X004685Y001135D02*
X005055Y001135D01*
X006395Y001099D02*
X006642Y001099D01*
X006765Y000975D01*
X006642Y000852D01*
X006395Y000852D01*
X006456Y001220D02*
X006703Y001220D01*
X006765Y001282D01*
X006765Y001405D01*
X006703Y001467D01*
X006703Y001588D02*
X006765Y001650D01*
X006765Y001773D01*
X006703Y001835D01*
X006456Y001835D02*
X006395Y001773D01*
X006395Y001650D01*
X006456Y001588D01*
X006703Y001588D01*
X006456Y001467D02*
X006395Y001405D01*
X006395Y001282D01*
X006456Y001220D01*
X007875Y001127D02*
X007875Y000942D01*
X008245Y000942D01*
X008122Y000942D02*
X008122Y001127D01*
X008060Y001189D01*
X007936Y001189D01*
X007875Y001127D01*
X007936Y001310D02*
X007875Y001372D01*
X007875Y001495D01*
X007936Y001557D01*
X007998Y001557D01*
X008245Y001310D01*
X008245Y001557D01*
X008245Y001678D02*
X008245Y001740D01*
X008183Y001740D01*
X008183Y001678D01*
X008245Y001678D01*
X008183Y001862D02*
X008245Y001924D01*
X008245Y002048D01*
X008183Y002109D01*
X008060Y002109D01*
X007998Y002048D01*
X007998Y001986D01*
X008060Y001862D01*
X007875Y001862D01*
X007875Y002109D01*
X009445Y001843D02*
X009445Y001720D01*
X009506Y001658D01*
X009568Y001658D01*
X009630Y001720D01*
X009630Y001843D01*
X009692Y001905D01*
X009753Y001905D01*
X009815Y001843D01*
X009815Y001720D01*
X009753Y001658D01*
X009753Y001537D02*
X009815Y001475D01*
X009815Y001352D01*
X009753Y001290D01*
X009692Y001169D02*
X009445Y001169D01*
X009506Y001290D02*
X009568Y001290D01*
X009630Y001352D01*
X009630Y001475D01*
X009692Y001537D01*
X009753Y001537D01*
X009506Y001537D02*
X009445Y001475D01*
X009445Y001352D01*
X009506Y001290D01*
X009692Y001169D02*
X009815Y001045D01*
X009692Y000922D01*
X009445Y000922D01*
X009445Y001843D02*
X009506Y001905D01*
X010995Y001940D02*
X011365Y001940D01*
X011303Y001695D02*
X010995Y001695D01*
X010995Y001817D02*
X010995Y002063D01*
X011303Y001695D02*
X011365Y001633D01*
X011365Y001510D01*
X011303Y001448D01*
X010995Y001448D01*
X011056Y001327D02*
X010995Y001265D01*
X010995Y001142D01*
X011056Y001080D01*
X011303Y001080D01*
X011365Y001142D01*
X011365Y001265D01*
X011303Y001327D01*
X011056Y001327D01*
X010995Y000959D02*
X011365Y000712D01*
X011365Y000959D02*
X010995Y000712D01*
X012495Y001162D02*
X012865Y001409D01*
X012865Y001530D02*
X012865Y001653D01*
X012865Y001592D02*
X012495Y001592D01*
X012495Y001653D02*
X012495Y001530D01*
X012495Y001409D02*
X012865Y001162D01*
X012865Y001776D02*
X012495Y001776D01*
X012865Y002022D01*
X012495Y002022D01*
X014015Y001962D02*
X014015Y001839D01*
X014076Y001777D01*
X014323Y001777D01*
X014385Y001839D01*
X014385Y001962D01*
X014323Y002024D01*
X014076Y002024D01*
X014015Y001962D01*
X014015Y001655D02*
X014015Y001532D01*
X014015Y001593D02*
X014385Y001593D01*
X014385Y001532D02*
X014385Y001655D01*
X015725Y001864D02*
X015725Y001988D01*
X015786Y002049D01*
X016033Y001802D01*
X016095Y001864D01*
X016095Y001988D01*
X016033Y002049D01*
X015786Y002049D01*
X015725Y001864D02*
X015786Y001802D01*
X016033Y001802D01*
X016033Y001680D02*
X016095Y001680D01*
X016095Y001618D01*
X016033Y001618D01*
X016033Y001680D01*
X016095Y001497D02*
X016095Y001250D01*
X015848Y001497D01*
X015786Y001497D01*
X015725Y001435D01*
X015725Y001312D01*
X015786Y001250D01*
X015786Y001129D02*
X015910Y001129D01*
X015972Y001067D01*
X015972Y000882D01*
X016095Y000882D02*
X015725Y000882D01*
X015725Y001067D01*
X015786Y001129D01*
X017255Y001147D02*
X017316Y001209D01*
X017440Y001209D01*
X017502Y001147D01*
X017502Y000962D01*
X017625Y000962D02*
X017255Y000962D01*
X017255Y001147D01*
X017316Y001330D02*
X017255Y001392D01*
X017255Y001515D01*
X017316Y001577D01*
X017378Y001577D01*
X017625Y001330D01*
X017625Y001577D01*
X017625Y001698D02*
X017625Y001760D01*
X017563Y001760D01*
X017563Y001698D01*
X017625Y001698D01*
X017625Y001882D02*
X017625Y002129D01*
X017625Y002006D02*
X017255Y002006D01*
X017378Y001882D01*
X018585Y001844D02*
X018646Y001782D01*
X018585Y001844D02*
X018585Y001968D01*
X018646Y002029D01*
X018708Y002029D01*
X018955Y001782D01*
X018955Y002029D01*
X019165Y002102D02*
X019165Y002226D01*
X019226Y002288D01*
X019473Y002041D01*
X019535Y002102D01*
X019535Y002226D01*
X019473Y002288D01*
X019226Y002288D01*
X019165Y002102D02*
X019226Y002041D01*
X019473Y002041D01*
X019473Y001918D02*
X019535Y001918D01*
X019535Y001857D01*
X019473Y001857D01*
X019473Y001918D01*
X019473Y001735D02*
X019226Y001735D01*
X019473Y001488D01*
X019535Y001550D01*
X019535Y001673D01*
X019473Y001735D01*
X019226Y001735D02*
X019165Y001673D01*
X019165Y001550D01*
X019226Y001488D01*
X019473Y001488D01*
X019535Y001367D02*
X019288Y001367D01*
X019165Y001243D01*
X019288Y001120D01*
X019535Y001120D01*
X019350Y001120D02*
X019350Y001367D01*
X018955Y001477D02*
X018955Y001230D01*
X018708Y001477D01*
X018646Y001477D01*
X018585Y001415D01*
X018585Y001292D01*
X018646Y001230D01*
X018646Y001109D02*
X018770Y001109D01*
X018832Y001047D01*
X018832Y000862D01*
X018955Y000862D02*
X018585Y000862D01*
X018585Y001047D01*
X018646Y001109D01*
X019165Y000999D02*
X019165Y000752D01*
X019165Y000875D02*
X019535Y000875D01*
X020345Y000922D02*
X020345Y001107D01*
X020406Y001169D01*
X020530Y001169D01*
X020592Y001107D01*
X020592Y000922D01*
X020715Y000922D02*
X020345Y000922D01*
X020406Y001290D02*
X020345Y001352D01*
X020345Y001475D01*
X020406Y001537D01*
X020468Y001537D01*
X020530Y001475D01*
X020592Y001537D01*
X020653Y001537D01*
X020715Y001475D01*
X020715Y001352D01*
X020653Y001290D01*
X020530Y001413D02*
X020530Y001475D01*
X020653Y001658D02*
X020653Y001720D01*
X020715Y001720D01*
X020715Y001658D01*
X020653Y001658D01*
X020653Y001842D02*
X020406Y002089D01*
X020653Y002089D01*
X020715Y002028D01*
X020715Y001904D01*
X020653Y001842D01*
X020406Y001842D01*
X020345Y001904D01*
X020345Y002028D01*
X020406Y002089D01*
X021915Y002016D02*
X022038Y001892D01*
X021915Y002016D02*
X022285Y002016D01*
X022285Y002139D02*
X022285Y001892D01*
X022285Y001770D02*
X022285Y001708D01*
X022223Y001708D01*
X022223Y001770D01*
X022285Y001770D01*
X022223Y001587D02*
X022162Y001587D01*
X022100Y001525D01*
X022100Y001463D01*
X022100Y001525D02*
X022038Y001587D01*
X021976Y001587D01*
X021915Y001525D01*
X021915Y001402D01*
X021976Y001340D01*
X021976Y001219D02*
X022100Y001219D01*
X022162Y001157D01*
X022162Y000972D01*
X022285Y000972D02*
X021915Y000972D01*
X021915Y001157D01*
X021976Y001219D01*
X022223Y001340D02*
X022285Y001402D01*
X022285Y001525D01*
X022223Y001587D01*
X023455Y001495D02*
X023516Y001557D01*
X023578Y001557D01*
X023640Y001495D01*
X023702Y001557D01*
X023763Y001557D01*
X023825Y001495D01*
X023825Y001372D01*
X023763Y001310D01*
X023640Y001189D02*
X023702Y001127D01*
X023702Y000942D01*
X023825Y000942D02*
X023455Y000942D01*
X023455Y001127D01*
X023516Y001189D01*
X023640Y001189D01*
X023516Y001310D02*
X023455Y001372D01*
X023455Y001495D01*
X023640Y001495D02*
X023640Y001433D01*
X023763Y001678D02*
X023763Y001740D01*
X023825Y001740D01*
X023825Y001678D01*
X023763Y001678D01*
X023825Y001862D02*
X023578Y002109D01*
X023516Y002109D01*
X023455Y002048D01*
X023455Y001924D01*
X023516Y001862D01*
X023825Y001862D02*
X023825Y002109D01*
X025105Y002008D02*
X025105Y001884D01*
X025166Y001822D01*
X025290Y001946D02*
X025290Y002008D01*
X025352Y002069D01*
X025413Y002069D01*
X025475Y002008D01*
X025475Y001884D01*
X025413Y001822D01*
X025413Y001700D02*
X025475Y001700D01*
X025475Y001638D01*
X025413Y001638D01*
X025413Y001700D01*
X025413Y001517D02*
X025352Y001517D01*
X025290Y001455D01*
X025290Y001393D01*
X025290Y001455D02*
X025228Y001517D01*
X025166Y001517D01*
X025105Y001455D01*
X025105Y001332D01*
X025166Y001270D01*
X025166Y001149D02*
X025290Y001149D01*
X025352Y001087D01*
X025352Y000902D01*
X025475Y000902D02*
X025105Y000902D01*
X025105Y001087D01*
X025166Y001149D01*
X025413Y001270D02*
X025475Y001332D01*
X025475Y001455D01*
X025413Y001517D01*
X025290Y002008D02*
X025228Y002069D01*
X025166Y002069D01*
X025105Y002008D01*
X028385Y002080D02*
X028755Y002327D01*
X028385Y002327D01*
X028385Y002448D02*
X028385Y002633D01*
X028446Y002695D01*
X028693Y002695D01*
X028755Y002633D01*
X028755Y002448D01*
X028385Y002448D01*
X028385Y002080D02*
X028755Y002080D01*
X028693Y001959D02*
X028570Y001959D01*
X028570Y001835D01*
X028693Y001712D02*
X028755Y001773D01*
X028755Y001897D01*
X028693Y001959D01*
X028446Y001959D02*
X028385Y001897D01*
X028385Y001773D01*
X028446Y001712D01*
X028693Y001712D01*
X028578Y001350D02*
X028578Y001103D01*
X028455Y001227D02*
X028702Y001227D01*
X030575Y003165D02*
X030698Y003289D01*
X030945Y003289D01*
X030760Y003289D02*
X030760Y003042D01*
X030698Y003042D02*
X030575Y003165D01*
X030698Y003042D02*
X030945Y003042D01*
X030985Y004002D02*
X030615Y004002D01*
X030615Y004187D01*
X030676Y004249D01*
X030738Y004249D01*
X030800Y004187D01*
X030800Y004002D01*
X030800Y004187D02*
X030862Y004249D01*
X030923Y004249D01*
X030985Y004187D01*
X030985Y004002D01*
X031037Y004822D02*
X030852Y004822D01*
X030913Y004945D02*
X030852Y005007D01*
X030913Y005069D01*
X031099Y005069D01*
X031220Y005007D02*
X031282Y005069D01*
X031405Y005069D01*
X031467Y005007D01*
X031467Y004945D01*
X031220Y004945D01*
X031220Y004883D02*
X031220Y005007D01*
X031220Y004883D02*
X031282Y004822D01*
X031405Y004822D01*
X031588Y004822D02*
X031588Y005069D01*
X031774Y005069D01*
X031835Y005007D01*
X031835Y004822D01*
X031957Y004883D02*
X031957Y005007D01*
X032018Y005069D01*
X032204Y005069D01*
X032204Y005192D02*
X032204Y004822D01*
X032018Y004822D01*
X031957Y004883D01*
X031099Y004883D02*
X031037Y004945D01*
X030913Y004945D01*
X031037Y004822D02*
X031099Y004883D01*
X028425Y006235D02*
X028055Y006235D01*
X028055Y006112D02*
X028055Y006359D01*
X028055Y006480D02*
X028425Y006727D01*
X028425Y006848D02*
X028425Y007033D01*
X028363Y007095D01*
X028302Y007095D01*
X028240Y007033D01*
X028240Y006848D01*
X028425Y006848D02*
X028055Y006848D01*
X028055Y007033D01*
X028116Y007095D01*
X028178Y007095D01*
X028240Y007033D01*
X028055Y006727D02*
X028425Y006480D01*
X028095Y007732D02*
X028095Y007979D01*
X028095Y008100D02*
X028465Y008347D01*
X028465Y008468D02*
X028218Y008468D01*
X028095Y008592D01*
X028218Y008715D01*
X028465Y008715D01*
X028280Y008715D02*
X028280Y008468D01*
X028095Y008347D02*
X028465Y008100D01*
X028465Y007855D02*
X028095Y007855D01*
X030115Y009495D02*
X030238Y009619D01*
X030485Y009619D01*
X030457Y009619D02*
X030272Y009619D01*
X030210Y009557D01*
X030272Y009495D01*
X030395Y009495D01*
X030457Y009433D01*
X030395Y009372D01*
X030210Y009372D01*
X030238Y009372D02*
X030115Y009495D01*
X030238Y009372D02*
X030485Y009372D01*
X030578Y009433D02*
X030578Y009557D01*
X030640Y009619D01*
X030763Y009619D01*
X030825Y009557D01*
X030825Y009495D01*
X030578Y009495D01*
X030578Y009433D02*
X030640Y009372D01*
X030763Y009372D01*
X030946Y009372D02*
X030946Y009619D01*
X031132Y009619D01*
X031193Y009557D01*
X031193Y009372D01*
X031315Y009433D02*
X031315Y009557D01*
X031377Y009619D01*
X031562Y009619D01*
X031562Y009742D02*
X031562Y009372D01*
X031377Y009372D01*
X031315Y009433D01*
X031683Y009310D02*
X031930Y009310D01*
X032051Y009433D02*
X032051Y009557D01*
X032113Y009619D01*
X032298Y009619D01*
X032420Y009619D02*
X032420Y009372D01*
X032298Y009372D02*
X032113Y009372D01*
X032051Y009433D01*
X032298Y009372D02*
X032298Y009742D01*
X032543Y009619D02*
X032420Y009495D01*
X032543Y009619D02*
X032605Y009619D01*
X032727Y009619D02*
X032850Y009372D01*
X032974Y009619D01*
X030300Y009619D02*
X030300Y009372D01*
X018955Y001660D02*
X018955Y001598D01*
X018893Y001598D01*
X018893Y001660D01*
X018955Y001660D01*
D12*
X026960Y000247D02*
X026960Y015537D01*
X000150Y015537D01*
X004628Y018507D02*
X004628Y019546D01*
X006392Y019546D01*
X006392Y018507D01*
X004628Y018507D01*
X009838Y026947D02*
X009838Y027986D01*
X011602Y027986D01*
X011602Y026947D01*
X009838Y026947D01*
X000190Y029717D02*
X021140Y029717D01*
X021140Y015497D01*
X026930Y015597D02*
X026930Y020597D01*
X039520Y020657D01*
X039520Y020787D01*
X034530Y019019D02*
X034530Y017255D01*
X033490Y017255D01*
X033490Y019019D01*
X034530Y019019D01*
X032062Y014156D02*
X030298Y014156D01*
X030298Y013117D01*
X032062Y013117D01*
X032062Y014156D01*
X027040Y010537D02*
X039520Y010537D01*
X039520Y010497D01*
X034042Y002036D02*
X032278Y002036D01*
X032278Y000997D01*
X034042Y000997D01*
X034042Y002036D01*
X007012Y006757D02*
X005248Y006757D01*
X005248Y007796D01*
X007012Y007796D01*
X007012Y006757D01*
D13*
X003610Y006787D02*
X003610Y002787D01*
X002610Y002787D01*
X002360Y002787D01*
X002360Y006787D01*
X002610Y006787D01*
X003610Y006787D01*
X002610Y006787D02*
X002610Y002787D01*
X002710Y019387D02*
X002710Y025387D01*
X002960Y025387D01*
X003960Y025387D01*
X003960Y019387D01*
X002960Y019387D01*
X002710Y019387D01*
X002960Y019387D02*
X002960Y025387D01*
X005060Y022307D02*
X006760Y022307D01*
X006783Y022305D01*
X006806Y022300D01*
X006828Y022291D01*
X006848Y022278D01*
X006866Y022263D01*
X006881Y022245D01*
X006894Y022225D01*
X006903Y022203D01*
X006908Y022180D01*
X006910Y022157D01*
X006910Y021737D01*
X006910Y021337D01*
X006910Y020917D01*
X006908Y020894D01*
X006903Y020871D01*
X006894Y020849D01*
X006881Y020829D01*
X006866Y020811D01*
X006848Y020796D01*
X006828Y020783D01*
X006806Y020774D01*
X006783Y020769D01*
X006760Y020767D01*
X005060Y020767D01*
X005037Y020769D01*
X005014Y020774D01*
X004992Y020783D01*
X004972Y020796D01*
X004954Y020811D01*
X004939Y020829D01*
X004926Y020849D01*
X004917Y020871D01*
X004912Y020894D01*
X004910Y020917D01*
X004910Y022157D01*
X004912Y022180D01*
X004917Y022203D01*
X004926Y022225D01*
X004939Y022245D01*
X004954Y022263D01*
X004972Y022278D01*
X004992Y022291D01*
X005014Y022300D01*
X005037Y022305D01*
X005060Y022307D01*
X006910Y021737D02*
X006883Y021735D01*
X006856Y021730D01*
X006830Y021720D01*
X006806Y021708D01*
X006784Y021692D01*
X006764Y021674D01*
X006747Y021652D01*
X006732Y021629D01*
X006722Y021604D01*
X006714Y021578D01*
X006710Y021551D01*
X006710Y021523D01*
X006714Y021496D01*
X006722Y021470D01*
X006732Y021445D01*
X006747Y021422D01*
X006764Y021400D01*
X006784Y021382D01*
X006806Y021366D01*
X006830Y021354D01*
X006856Y021344D01*
X006883Y021339D01*
X006910Y021337D01*
X018360Y022187D02*
X018360Y024187D01*
X018610Y024187D01*
X019610Y024187D01*
X019610Y022187D01*
X018610Y022187D01*
X018360Y022187D01*
X018610Y022187D02*
X018610Y024187D01*
X023200Y023287D02*
X024200Y023287D01*
X024450Y023287D01*
X024450Y026287D01*
X024200Y026287D01*
X024200Y023287D01*
X024420Y023067D02*
X023420Y023067D01*
X023170Y023067D01*
X023170Y021067D01*
X023420Y021067D01*
X023420Y023067D01*
X023200Y023287D02*
X023200Y026287D01*
X024200Y026287D01*
X025828Y024177D02*
X026851Y024177D01*
X026871Y024175D01*
X026891Y024171D01*
X026909Y024163D01*
X026926Y024153D01*
X026942Y024140D01*
X026955Y024124D01*
X026965Y024107D01*
X026973Y024089D01*
X026977Y024069D01*
X026979Y024049D01*
X026979Y023025D01*
X026977Y023005D01*
X026973Y022985D01*
X026965Y022967D01*
X026955Y022950D01*
X026942Y022934D01*
X026926Y022921D01*
X026909Y022911D01*
X026891Y022903D01*
X026871Y022899D01*
X026851Y022897D01*
X025828Y022897D01*
X025808Y022899D01*
X025788Y022903D01*
X025770Y022911D01*
X025753Y022921D01*
X025737Y022934D01*
X025724Y022950D01*
X025714Y022967D01*
X025706Y022985D01*
X025702Y023005D01*
X025700Y023025D01*
X025700Y024065D01*
X025700Y024049D02*
X025702Y024069D01*
X025706Y024089D01*
X025714Y024107D01*
X025724Y024124D01*
X025737Y024140D01*
X025753Y024153D01*
X025770Y024163D01*
X025788Y024171D01*
X025808Y024175D01*
X025828Y024177D01*
X024420Y023067D02*
X024420Y021067D01*
X023420Y021067D01*
X028016Y020443D02*
X028443Y020443D01*
X028550Y020549D01*
X028123Y020549D02*
X028123Y020336D01*
X028123Y020118D02*
X028550Y020118D01*
X028550Y019798D01*
X028443Y019691D01*
X028123Y019691D01*
X028230Y019474D02*
X028123Y019367D01*
X028123Y019153D01*
X028230Y019047D01*
X028443Y019047D01*
X028550Y019153D01*
X028550Y019367D01*
X028443Y019474D01*
X028230Y019474D01*
X028184Y018860D02*
X028184Y018433D01*
X028397Y018647D02*
X027970Y018647D01*
X028740Y019117D02*
X028740Y017117D01*
X029740Y017117D01*
X029990Y017117D01*
X029990Y019117D01*
X029740Y019117D01*
X029740Y017117D01*
X029810Y016837D02*
X028810Y016837D01*
X028560Y016837D01*
X028560Y013837D01*
X028810Y013837D01*
X028810Y016837D01*
X029810Y016837D02*
X029810Y013837D01*
X028810Y013837D01*
X028810Y013753D02*
X029130Y013753D01*
X028810Y013753D02*
X028703Y013647D01*
X028703Y013326D01*
X029130Y013326D01*
X029130Y013110D02*
X029130Y012897D01*
X029130Y013003D02*
X028703Y013003D01*
X028703Y012897D01*
X028489Y013003D02*
X028383Y013003D01*
X028153Y013617D02*
X027940Y013617D01*
X027833Y013723D01*
X027833Y013937D01*
X027940Y014044D01*
X028046Y014044D01*
X028046Y013617D01*
X028153Y013617D02*
X028260Y013723D01*
X028260Y013937D01*
X028260Y014261D02*
X027833Y014261D01*
X027833Y014581D01*
X027940Y014688D01*
X028260Y014688D01*
X028034Y015193D02*
X028034Y015620D01*
X027820Y015407D02*
X028247Y015407D01*
X032350Y015918D02*
X032387Y015918D01*
X032350Y015918D02*
X032350Y016556D01*
X032387Y016556D01*
X032704Y016556D02*
X032741Y016556D01*
X033079Y016556D02*
X033116Y016556D01*
X033433Y016556D02*
X033470Y016556D01*
X033470Y015918D01*
X033433Y015918D01*
X033116Y015918D02*
X032704Y015918D01*
X029740Y019117D02*
X028740Y019117D01*
X029124Y010057D02*
X029337Y010057D01*
X029230Y010057D02*
X029230Y009523D01*
X029124Y009417D01*
X029017Y009417D01*
X028910Y009523D01*
X029555Y009737D02*
X029982Y009737D01*
X029875Y009417D02*
X029875Y010057D01*
X029555Y009737D01*
X031190Y004637D02*
X031190Y002637D01*
X032190Y002637D01*
X032440Y002637D01*
X032440Y004637D01*
X032190Y004637D01*
X032190Y002637D01*
X030210Y002857D02*
X029210Y002857D01*
X028960Y002857D01*
X028960Y000857D01*
X029210Y000857D01*
X029210Y002857D01*
X030210Y002857D02*
X030210Y000857D01*
X029210Y000857D01*
X031190Y004637D02*
X032190Y004637D01*
D14*
X031960Y005587D02*
X028960Y005587D01*
X028960Y009087D01*
X031960Y009087D01*
X032960Y009087D01*
X032960Y005587D01*
X031960Y005587D01*
X030270Y020637D02*
X021150Y020637D01*
X021150Y020897D01*
X021150Y027657D02*
X030270Y027657D01*
X030270Y020637D01*
X034120Y022187D02*
X035760Y022147D01*
X035720Y028827D01*
X036580Y028827D01*
X036670Y028777D02*
X034940Y031507D01*
X034900Y031417D02*
X033170Y028777D01*
X034200Y028777D01*
X034120Y028737D02*
X034120Y022187D01*
D15*
X033047Y020017D02*
X032740Y020017D01*
X032587Y019940D02*
X032510Y020017D01*
X032357Y020017D01*
X032280Y019940D01*
X032280Y019633D01*
X032357Y019557D01*
X032510Y019557D01*
X032587Y019633D01*
X032740Y019633D02*
X032740Y019557D01*
X032740Y019633D02*
X033047Y019940D01*
X033047Y020017D01*
X034780Y018850D02*
X035240Y018850D01*
X035240Y019003D02*
X035240Y018696D01*
X035163Y018543D02*
X034856Y018543D01*
X034780Y018466D01*
X034780Y018236D01*
X035240Y018236D01*
X035240Y018466D01*
X035163Y018543D01*
X034933Y018696D02*
X034780Y018850D01*
X033077Y017340D02*
X033077Y017264D01*
X033000Y017187D01*
X033077Y017110D01*
X033077Y017033D01*
X033000Y016957D01*
X032846Y016957D01*
X032770Y017033D01*
X032616Y017033D02*
X032616Y017110D01*
X032539Y017187D01*
X032386Y017187D01*
X032309Y017264D01*
X032309Y017340D01*
X032386Y017417D01*
X032539Y017417D01*
X032616Y017340D01*
X032770Y017340D02*
X032846Y017417D01*
X033000Y017417D01*
X033077Y017340D01*
X033000Y017187D02*
X032923Y017187D01*
X032616Y017033D02*
X032539Y016957D01*
X032386Y016957D01*
X032309Y017033D01*
X032156Y017033D02*
X032156Y017417D01*
X031849Y017417D02*
X031849Y017033D01*
X031926Y016957D01*
X032079Y016957D01*
X032156Y017033D01*
X032463Y016880D02*
X032463Y017494D01*
X031971Y015717D02*
X031817Y015717D01*
X031740Y015640D01*
X031740Y015564D01*
X031817Y015487D01*
X032047Y015487D01*
X032047Y015640D02*
X032047Y015333D01*
X031971Y015257D01*
X031817Y015257D01*
X031740Y015333D01*
X031587Y015257D02*
X031433Y015410D01*
X031510Y015410D02*
X031280Y015410D01*
X031280Y015257D02*
X031280Y015717D01*
X031510Y015717D01*
X031587Y015640D01*
X031587Y015487D01*
X031510Y015410D01*
X031971Y015717D02*
X032047Y015640D01*
X030570Y015094D02*
X030570Y014787D01*
X030263Y015094D01*
X030186Y015094D01*
X030110Y015017D01*
X030110Y014864D01*
X030186Y014787D01*
X030110Y014634D02*
X030110Y014480D01*
X030110Y014557D02*
X030493Y014557D01*
X030570Y014480D01*
X030570Y014403D01*
X030493Y014327D01*
X030313Y015157D02*
X030006Y015157D01*
X029930Y015233D01*
X029930Y015387D01*
X030006Y015464D01*
X030160Y015617D02*
X029930Y015847D01*
X030390Y015847D01*
X030160Y015924D02*
X030160Y015617D01*
X030313Y015464D02*
X030390Y015387D01*
X030390Y015233D01*
X030313Y015157D01*
X030387Y016225D02*
X030387Y016456D01*
X030310Y016532D01*
X030156Y016532D01*
X030080Y016456D01*
X030080Y016225D01*
X030540Y016225D01*
X030387Y016379D02*
X030540Y016532D01*
X030540Y016686D02*
X030540Y016993D01*
X030540Y017146D02*
X030540Y017453D01*
X030540Y017300D02*
X030080Y017300D01*
X030233Y017146D01*
X030080Y016839D02*
X030540Y016839D01*
X030233Y016686D02*
X030080Y016839D01*
X030156Y017936D02*
X030080Y018013D01*
X030080Y018166D01*
X030156Y018243D01*
X030310Y018396D02*
X030310Y018626D01*
X030387Y018703D01*
X030463Y018703D01*
X030540Y018626D01*
X030540Y018473D01*
X030463Y018396D01*
X030310Y018396D01*
X030156Y018550D01*
X030080Y018703D01*
X030463Y018243D02*
X030540Y018166D01*
X030540Y018013D01*
X030463Y017936D01*
X030156Y017936D01*
X029343Y018976D02*
X029420Y019053D01*
X029420Y019129D01*
X029343Y019206D01*
X028960Y019206D01*
X028960Y019129D02*
X028960Y019283D01*
X029036Y019436D02*
X028960Y019513D01*
X028960Y019666D01*
X029036Y019743D01*
X029113Y019743D01*
X029190Y019666D01*
X029267Y019743D01*
X029343Y019743D01*
X029420Y019666D01*
X029420Y019513D01*
X029343Y019436D01*
X029190Y019590D02*
X029190Y019666D01*
X026497Y021663D02*
X026497Y021740D01*
X026420Y021817D01*
X026190Y021817D01*
X026190Y021663D01*
X026266Y021587D01*
X026420Y021587D01*
X026497Y021663D01*
X026343Y021970D02*
X026190Y021817D01*
X026036Y021894D02*
X026036Y021970D01*
X025959Y022047D01*
X025806Y022047D01*
X025729Y021970D01*
X025576Y021970D02*
X025576Y021817D01*
X025499Y021740D01*
X025269Y021740D01*
X025422Y021740D02*
X025576Y021587D01*
X025729Y021587D02*
X026036Y021894D01*
X026036Y021587D02*
X025729Y021587D01*
X025576Y021970D02*
X025499Y022047D01*
X025269Y022047D01*
X025269Y021587D01*
X025226Y021337D02*
X025380Y021337D01*
X025457Y021260D01*
X025150Y020953D01*
X025226Y020877D01*
X025380Y020877D01*
X025457Y020953D01*
X025457Y021260D01*
X025226Y021337D02*
X025150Y021260D01*
X025150Y020953D01*
X024996Y020877D02*
X024689Y020877D01*
X024843Y020877D02*
X024843Y021337D01*
X024689Y021184D01*
X024536Y021337D02*
X024382Y021337D01*
X024459Y021337D02*
X024459Y020953D01*
X024382Y020877D01*
X024306Y020877D01*
X024229Y020953D01*
X026343Y021970D02*
X026497Y022047D01*
X028790Y022413D02*
X028867Y022337D01*
X029020Y022337D01*
X029097Y022413D01*
X029250Y022337D02*
X029557Y022644D01*
X029557Y022720D01*
X029481Y022797D01*
X029327Y022797D01*
X029250Y022720D01*
X029097Y022720D02*
X029020Y022797D01*
X028867Y022797D01*
X028790Y022720D01*
X028790Y022413D01*
X029250Y022337D02*
X029557Y022337D01*
X029711Y022413D02*
X029788Y022337D01*
X029941Y022337D01*
X030018Y022413D01*
X030018Y022567D01*
X029941Y022644D01*
X029864Y022644D01*
X029711Y022567D01*
X029711Y022797D01*
X030018Y022797D01*
X027241Y025137D02*
X027241Y025597D01*
X027011Y025367D01*
X027318Y025367D01*
X026857Y025444D02*
X026857Y025520D01*
X026781Y025597D01*
X026627Y025597D01*
X026550Y025520D01*
X026397Y025520D02*
X026397Y025367D01*
X026320Y025290D01*
X026090Y025290D01*
X026090Y025137D02*
X026090Y025597D01*
X026320Y025597D01*
X026397Y025520D01*
X026243Y025290D02*
X026397Y025137D01*
X026550Y025137D02*
X026857Y025444D01*
X026857Y025137D02*
X026550Y025137D01*
X025470Y025397D02*
X025010Y025397D01*
X025010Y025627D01*
X025086Y025704D01*
X025240Y025704D01*
X025317Y025627D01*
X025317Y025397D01*
X025317Y025550D02*
X025470Y025704D01*
X025470Y025857D02*
X025163Y026164D01*
X025086Y026164D01*
X025010Y026087D01*
X025010Y025934D01*
X025086Y025857D01*
X025470Y025857D02*
X025470Y026164D01*
X025393Y026317D02*
X025470Y026394D01*
X025470Y026548D01*
X025393Y026624D01*
X025240Y026624D01*
X025163Y026548D01*
X025163Y026471D01*
X025240Y026317D01*
X025010Y026317D01*
X025010Y026624D01*
X023940Y026733D02*
X023940Y026886D01*
X023863Y026963D01*
X023556Y026963D01*
X023480Y026886D01*
X023480Y026733D01*
X023556Y026656D01*
X023633Y026656D01*
X023710Y026733D01*
X023710Y026963D01*
X023940Y026733D02*
X023863Y026656D01*
X023863Y026426D02*
X023480Y026426D01*
X023480Y026349D02*
X023480Y026503D01*
X023863Y026426D02*
X023940Y026349D01*
X023940Y026273D01*
X023863Y026196D01*
X033780Y015124D02*
X033780Y014817D01*
X034010Y014817D01*
X033933Y014971D01*
X033933Y015047D01*
X034010Y015124D01*
X034163Y015124D01*
X034240Y015047D01*
X034240Y014894D01*
X034163Y014817D01*
X034163Y014664D02*
X034240Y014587D01*
X034240Y014433D01*
X034163Y014357D01*
X033856Y014357D01*
X033780Y014433D01*
X033780Y014587D01*
X033856Y014664D01*
X033177Y014440D02*
X033177Y014364D01*
X033100Y014287D01*
X032946Y014287D01*
X032870Y014364D01*
X032870Y014440D01*
X032946Y014517D01*
X033100Y014517D01*
X033177Y014440D01*
X033100Y014287D02*
X033177Y014210D01*
X033177Y014133D01*
X033100Y014057D01*
X032946Y014057D01*
X032870Y014133D01*
X032870Y014210D01*
X032946Y014287D01*
X032716Y014287D02*
X032716Y014440D01*
X032639Y014517D01*
X032409Y014517D01*
X032409Y014057D01*
X032409Y014210D02*
X032639Y014210D01*
X032716Y014287D01*
X032563Y014210D02*
X032716Y014057D01*
X031970Y012867D02*
X032047Y012790D01*
X032047Y012714D01*
X031970Y012637D01*
X032047Y012560D01*
X032047Y012483D01*
X031970Y012407D01*
X031816Y012407D01*
X031740Y012483D01*
X031586Y012483D02*
X031509Y012407D01*
X031279Y012407D01*
X031279Y012867D01*
X031509Y012867D01*
X031586Y012790D01*
X031586Y012483D01*
X031893Y012637D02*
X031970Y012637D01*
X031970Y012867D02*
X031816Y012867D01*
X031740Y012790D01*
X034495Y013350D02*
X034802Y013350D01*
X034956Y013350D02*
X035262Y013350D01*
X035109Y013350D02*
X035109Y013811D01*
X034956Y013657D01*
X034495Y013811D02*
X034495Y013350D01*
X037130Y009717D02*
X037360Y009717D01*
X037437Y009640D01*
X037437Y009487D01*
X037360Y009410D01*
X037130Y009410D01*
X037130Y009257D02*
X037130Y009717D01*
X037283Y009410D02*
X037437Y009257D01*
X037590Y009333D02*
X037667Y009257D01*
X037821Y009257D01*
X037897Y009333D01*
X037897Y009410D01*
X037821Y009487D01*
X037744Y009487D01*
X037821Y009487D02*
X037897Y009564D01*
X037897Y009640D01*
X037821Y009717D01*
X037667Y009717D01*
X037590Y009640D01*
X036423Y007617D02*
X036423Y007157D01*
X036270Y007157D02*
X036577Y007157D01*
X036270Y007464D02*
X036423Y007617D01*
X036116Y007540D02*
X036116Y007233D01*
X036039Y007157D01*
X035886Y007157D01*
X035809Y007233D01*
X035809Y007540D01*
X035886Y007617D01*
X036039Y007617D01*
X036116Y007540D01*
X035963Y007310D02*
X036116Y007157D01*
X037130Y007217D02*
X037130Y006757D01*
X037130Y006910D02*
X037360Y006910D01*
X037437Y006987D01*
X037437Y007140D01*
X037360Y007217D01*
X037130Y007217D01*
X037283Y006910D02*
X037437Y006757D01*
X037590Y006987D02*
X037897Y006987D01*
X037821Y006757D02*
X037821Y007217D01*
X037590Y006987D01*
X036500Y005617D02*
X036346Y005617D01*
X036270Y005540D01*
X036116Y005540D02*
X036116Y005233D01*
X036039Y005157D01*
X035886Y005157D01*
X035809Y005233D01*
X035809Y005540D01*
X035886Y005617D01*
X036039Y005617D01*
X036116Y005540D01*
X035963Y005310D02*
X036116Y005157D01*
X036270Y005157D02*
X036577Y005464D01*
X036577Y005540D01*
X036500Y005617D01*
X036577Y005157D02*
X036270Y005157D01*
X035940Y004553D02*
X035940Y004246D01*
X035940Y004400D02*
X035480Y004400D01*
X035633Y004246D01*
X035556Y004093D02*
X035480Y004016D01*
X035480Y003863D01*
X035556Y003786D01*
X035633Y003786D01*
X035710Y003863D01*
X035710Y004016D01*
X035787Y004093D01*
X035863Y004093D01*
X035940Y004016D01*
X035940Y003863D01*
X035863Y003786D01*
X035863Y003632D02*
X035480Y003632D01*
X035480Y003325D02*
X035863Y003325D01*
X035940Y003402D01*
X035940Y003556D01*
X035863Y003632D01*
X036017Y003939D02*
X035403Y003939D01*
X036930Y003766D02*
X036930Y003613D01*
X037006Y003536D01*
X037313Y003536D01*
X037390Y003613D01*
X037390Y003766D01*
X037313Y003843D01*
X037390Y003996D02*
X037390Y004303D01*
X037390Y004150D02*
X036930Y004150D01*
X037083Y003996D01*
X037006Y003843D02*
X036930Y003766D01*
X033950Y000747D02*
X033720Y000517D01*
X034027Y000517D01*
X033950Y000287D02*
X033950Y000747D01*
X033566Y000670D02*
X033566Y000363D01*
X033489Y000287D01*
X033259Y000287D01*
X033259Y000747D01*
X033489Y000747D01*
X033566Y000670D01*
X030970Y000923D02*
X030970Y001000D01*
X030893Y001077D01*
X030510Y001077D01*
X030510Y001000D02*
X030510Y001154D01*
X030586Y001307D02*
X030510Y001384D01*
X030510Y001537D01*
X030586Y001614D01*
X030663Y001614D01*
X030740Y001537D01*
X030740Y001384D01*
X030663Y001307D01*
X030586Y001307D01*
X030740Y001384D02*
X030817Y001307D01*
X030893Y001307D01*
X030970Y001384D01*
X030970Y001537D01*
X030893Y001614D01*
X030817Y001614D01*
X030740Y001537D01*
X030970Y000923D02*
X030893Y000847D01*
X032710Y003149D02*
X032710Y003303D01*
X032710Y003226D02*
X033093Y003226D01*
X033170Y003149D01*
X033170Y003073D01*
X033093Y002996D01*
X033093Y003456D02*
X033170Y003533D01*
X033170Y003686D01*
X033093Y003763D01*
X032940Y003763D01*
X032863Y003686D01*
X032863Y003610D01*
X032940Y003456D01*
X032710Y003456D01*
X032710Y003763D01*
X033680Y006807D02*
X033680Y007267D01*
X033910Y007267D01*
X033987Y007190D01*
X033987Y007037D01*
X033910Y006960D01*
X033680Y006960D01*
X033833Y006960D02*
X033987Y006807D01*
X034140Y006807D02*
X034447Y007114D01*
X034447Y007190D01*
X034371Y007267D01*
X034217Y007267D01*
X034140Y007190D01*
X034140Y006807D02*
X034447Y006807D01*
X034447Y008807D02*
X034140Y008807D01*
X033987Y008807D02*
X033833Y008960D01*
X033910Y008960D02*
X033680Y008960D01*
X033680Y008807D02*
X033680Y009267D01*
X033910Y009267D01*
X033987Y009190D01*
X033987Y009037D01*
X033910Y008960D01*
X034140Y009114D02*
X034294Y009267D01*
X034294Y008807D01*
X026708Y005826D02*
X026708Y005673D01*
X026631Y005596D01*
X026708Y005443D02*
X026248Y005136D01*
X026248Y005443D02*
X026708Y005136D01*
X026324Y005596D02*
X026248Y005673D01*
X026248Y005826D01*
X026324Y005903D01*
X026401Y005903D01*
X026478Y005826D01*
X026555Y005903D01*
X026631Y005903D01*
X026708Y005826D01*
X026478Y005826D02*
X026478Y005750D01*
X019940Y007852D02*
X019863Y007775D01*
X019556Y007775D01*
X019480Y007852D01*
X019480Y008006D01*
X019556Y008082D01*
X019863Y008082D01*
X019940Y008006D01*
X019940Y007852D01*
X019787Y007929D02*
X019940Y008082D01*
X019863Y008236D02*
X019940Y008313D01*
X019940Y008466D01*
X019863Y008543D01*
X019710Y008543D01*
X019710Y008389D01*
X019863Y008236D02*
X019556Y008236D01*
X019480Y008313D01*
X019480Y008466D01*
X019556Y008543D01*
X019633Y008696D02*
X019480Y008850D01*
X019940Y008850D01*
X019940Y009003D02*
X019940Y008696D01*
X012119Y008025D02*
X011506Y008025D01*
X011582Y008102D02*
X011659Y008178D01*
X011582Y008102D02*
X011582Y007948D01*
X011659Y007871D01*
X011736Y007871D01*
X011813Y007948D01*
X011813Y008102D01*
X011889Y008178D01*
X011966Y008178D01*
X012043Y008102D01*
X012043Y007948D01*
X011966Y007871D01*
X011966Y007718D02*
X011582Y007718D01*
X011363Y007503D02*
X011287Y007503D01*
X011210Y007426D01*
X011210Y007196D01*
X011363Y007196D01*
X011440Y007273D01*
X011440Y007426D01*
X011363Y007503D01*
X011582Y007411D02*
X011966Y007411D01*
X012043Y007488D01*
X012043Y007641D01*
X011966Y007718D01*
X012043Y008332D02*
X011736Y008639D01*
X011659Y008639D01*
X011582Y008562D01*
X011582Y008409D01*
X011659Y008332D01*
X012043Y008332D02*
X012043Y008639D01*
X010980Y007503D02*
X011056Y007350D01*
X011210Y007196D01*
X011210Y007043D02*
X011287Y006966D01*
X011287Y006736D01*
X011440Y006736D02*
X010980Y006736D01*
X010980Y006966D01*
X011056Y007043D01*
X011210Y007043D01*
X011287Y006889D02*
X011440Y007043D01*
X010113Y008457D02*
X009806Y008457D01*
X009730Y008533D01*
X009730Y008687D01*
X009806Y008764D01*
X009806Y008917D02*
X009730Y008994D01*
X009730Y009147D01*
X009806Y009224D01*
X009883Y009224D01*
X009960Y009147D01*
X010037Y009224D01*
X010113Y009224D01*
X010190Y009147D01*
X010190Y008994D01*
X010113Y008917D01*
X010113Y008764D02*
X010190Y008687D01*
X010190Y008533D01*
X010113Y008457D01*
X009960Y009071D02*
X009960Y009147D01*
X008690Y009224D02*
X008690Y008917D01*
X008383Y009224D01*
X008306Y009224D01*
X008230Y009147D01*
X008230Y008994D01*
X008306Y008917D01*
X008306Y008764D02*
X008230Y008687D01*
X008230Y008533D01*
X008306Y008457D01*
X008613Y008457D01*
X008690Y008533D01*
X008690Y008687D01*
X008613Y008764D01*
X008356Y007724D02*
X008280Y007724D01*
X008280Y007417D01*
X008356Y007264D02*
X008280Y007187D01*
X008280Y006957D01*
X008740Y006957D01*
X008587Y006957D02*
X008587Y007187D01*
X008510Y007264D01*
X008356Y007264D01*
X008587Y007110D02*
X008740Y007264D01*
X008740Y007417D02*
X008663Y007417D01*
X008356Y007724D01*
X005917Y008123D02*
X005917Y008200D01*
X005841Y008277D01*
X005610Y008277D01*
X005610Y008123D01*
X005687Y008047D01*
X005841Y008047D01*
X005917Y008123D01*
X005764Y008430D02*
X005610Y008277D01*
X005457Y008430D02*
X005380Y008507D01*
X005150Y008507D01*
X005150Y008047D01*
X005380Y008047D01*
X005457Y008123D01*
X005457Y008430D01*
X005764Y008430D02*
X005917Y008507D01*
X003547Y008617D02*
X003240Y008617D01*
X003240Y008387D01*
X003394Y008464D01*
X003471Y008464D01*
X003547Y008387D01*
X003547Y008233D01*
X003471Y008157D01*
X003317Y008157D01*
X003240Y008233D01*
X003087Y008157D02*
X002933Y008310D01*
X003010Y008310D02*
X002780Y008310D01*
X002833Y008413D02*
X002910Y008490D01*
X002910Y008797D01*
X002833Y008873D01*
X002603Y008873D01*
X002603Y008413D01*
X002833Y008413D01*
X003010Y008310D02*
X003087Y008387D01*
X003087Y008540D01*
X003010Y008617D01*
X002780Y008617D01*
X002780Y008157D01*
X003063Y008413D02*
X003370Y008413D01*
X003217Y008413D02*
X003217Y008873D01*
X003063Y008720D01*
X003031Y009149D02*
X003189Y009149D01*
X003189Y009424D02*
X003031Y009424D01*
X002449Y008873D02*
X002143Y008873D01*
X002143Y008413D01*
X002449Y008413D01*
X002296Y008643D02*
X002143Y008643D01*
X001989Y008413D02*
X001682Y008413D01*
X001682Y008873D01*
X003511Y010557D02*
X003972Y010864D01*
X003972Y011017D02*
X003665Y011324D01*
X003588Y011324D01*
X003511Y011247D01*
X003511Y011094D01*
X003588Y011017D01*
X003511Y010864D02*
X003972Y010557D01*
X003972Y011017D02*
X003972Y011324D01*
X005609Y017797D02*
X005839Y017797D01*
X005916Y017873D01*
X005916Y018180D01*
X005839Y018257D01*
X005609Y018257D01*
X005609Y017797D01*
X006070Y017873D02*
X006146Y017797D01*
X006300Y017797D01*
X006377Y017873D01*
X006377Y018027D01*
X006300Y018104D01*
X006223Y018104D01*
X006070Y018027D01*
X006070Y018257D01*
X006377Y018257D01*
X004850Y019812D02*
X004550Y019812D01*
X004550Y020052D02*
X004850Y020052D01*
X004910Y019992D01*
X004910Y019872D01*
X004850Y019812D01*
X004850Y020180D02*
X004910Y020240D01*
X004910Y020360D01*
X004850Y020420D01*
X004790Y020420D01*
X004730Y020360D01*
X004730Y020240D01*
X004670Y020180D01*
X004610Y020180D01*
X004550Y020240D01*
X004550Y020360D01*
X004610Y020420D01*
X004550Y020548D02*
X004730Y020548D01*
X004670Y020668D01*
X004670Y020729D01*
X004730Y020789D01*
X004850Y020789D01*
X004910Y020729D01*
X004910Y020608D01*
X004850Y020548D01*
X004970Y020300D02*
X004490Y020300D01*
X004550Y020548D02*
X004550Y020789D01*
X004370Y004294D02*
X004370Y003987D01*
X004370Y004141D02*
X003910Y004141D01*
X004063Y003987D01*
X003910Y003834D02*
X003910Y003680D01*
X003910Y003757D02*
X004293Y003757D01*
X004370Y003680D01*
X004370Y003603D01*
X004293Y003527D01*
D16*
X004964Y003293D02*
X004964Y002338D01*
X025246Y002338D01*
X025246Y003293D01*
X004964Y003293D01*
X004964Y002338D02*
X004256Y002338D01*
X004256Y006186D01*
X025954Y006186D01*
X025954Y002338D01*
X025246Y002338D01*
X019299Y007792D02*
X019299Y008482D01*
X018499Y009082D02*
X017421Y009082D01*
X016621Y008482D02*
X016621Y007792D01*
X016000Y007440D02*
X012220Y007440D01*
X012220Y009133D01*
X016000Y009133D01*
X016000Y007440D01*
X017421Y007192D02*
X018499Y007192D01*
X012476Y007775D02*
X012478Y007797D01*
X012484Y007819D01*
X012493Y007839D01*
X012506Y007857D01*
X012522Y007873D01*
X012540Y007886D01*
X012560Y007895D01*
X012582Y007901D01*
X012604Y007903D01*
X012626Y007901D01*
X012648Y007895D01*
X012668Y007886D01*
X012686Y007873D01*
X012702Y007857D01*
X012715Y007839D01*
X012724Y007819D01*
X012730Y007797D01*
X012732Y007775D01*
X012730Y007753D01*
X012724Y007731D01*
X012715Y007711D01*
X012702Y007693D01*
X012686Y007677D01*
X012668Y007664D01*
X012648Y007655D01*
X012626Y007649D01*
X012604Y007647D01*
X012582Y007649D01*
X012560Y007655D01*
X012540Y007664D01*
X012522Y007677D01*
X012506Y007693D01*
X012493Y007711D01*
X012484Y007731D01*
X012478Y007753D01*
X012476Y007775D01*
X004974Y013281D02*
X004974Y014235D01*
X004266Y014235D01*
X004266Y010387D01*
X025964Y010387D01*
X025964Y014235D01*
X025256Y014235D01*
X025256Y013281D01*
X004974Y013281D01*
X004974Y014235D02*
X025256Y014235D01*
X034672Y014677D02*
X035280Y014069D01*
X034672Y014677D02*
X034672Y017789D01*
X034674Y017824D01*
X034679Y017859D01*
X034688Y017893D01*
X034701Y017925D01*
X034717Y017957D01*
X034736Y017986D01*
X034758Y018013D01*
X034783Y018038D01*
X034810Y018060D01*
X034840Y018079D01*
X034871Y018095D01*
X034903Y018108D01*
X034937Y018117D01*
X034972Y018122D01*
X035007Y018124D01*
X035361Y016097D02*
X035363Y016169D01*
X035369Y016240D01*
X035379Y016311D01*
X035392Y016381D01*
X035410Y016450D01*
X035431Y016519D01*
X035456Y016586D01*
X035485Y016651D01*
X035518Y016715D01*
X035553Y016777D01*
X035593Y016837D01*
X035635Y016895D01*
X035680Y016950D01*
X035729Y017003D01*
X035780Y017053D01*
X035834Y017100D01*
X035891Y017144D01*
X035950Y017184D01*
X036010Y017222D01*
X036073Y017256D01*
X036138Y017287D01*
X036205Y017314D01*
X036272Y017337D01*
X036341Y017356D01*
X036411Y017372D01*
X036482Y017384D01*
X036553Y017392D01*
X036624Y017396D01*
X036696Y017396D01*
X036767Y017392D01*
X036838Y017384D01*
X036909Y017372D01*
X036979Y017356D01*
X037048Y017337D01*
X037115Y017314D01*
X037182Y017287D01*
X037247Y017256D01*
X037309Y017222D01*
X037370Y017184D01*
X037429Y017144D01*
X037486Y017100D01*
X037540Y017053D01*
X037591Y017003D01*
X037640Y016950D01*
X037685Y016895D01*
X037727Y016837D01*
X037767Y016777D01*
X037802Y016715D01*
X037835Y016651D01*
X037864Y016586D01*
X037889Y016519D01*
X037910Y016450D01*
X037928Y016381D01*
X037941Y016311D01*
X037951Y016240D01*
X037957Y016169D01*
X037959Y016097D01*
X037957Y016025D01*
X037951Y015954D01*
X037941Y015883D01*
X037928Y015813D01*
X037910Y015744D01*
X037889Y015675D01*
X037864Y015608D01*
X037835Y015543D01*
X037802Y015479D01*
X037767Y015417D01*
X037727Y015357D01*
X037685Y015299D01*
X037640Y015244D01*
X037591Y015191D01*
X037540Y015141D01*
X037486Y015094D01*
X037429Y015050D01*
X037370Y015010D01*
X037310Y014972D01*
X037247Y014938D01*
X037182Y014907D01*
X037115Y014880D01*
X037048Y014857D01*
X036979Y014838D01*
X036909Y014822D01*
X036838Y014810D01*
X036767Y014802D01*
X036696Y014798D01*
X036624Y014798D01*
X036553Y014802D01*
X036482Y014810D01*
X036411Y014822D01*
X036341Y014838D01*
X036272Y014857D01*
X036205Y014880D01*
X036138Y014907D01*
X036073Y014938D01*
X036010Y014972D01*
X035950Y015010D01*
X035891Y015050D01*
X035834Y015094D01*
X035780Y015141D01*
X035729Y015191D01*
X035680Y015244D01*
X035635Y015299D01*
X035593Y015357D01*
X035553Y015417D01*
X035518Y015479D01*
X035485Y015543D01*
X035456Y015608D01*
X035431Y015675D01*
X035410Y015744D01*
X035392Y015813D01*
X035379Y015883D01*
X035369Y015954D01*
X035363Y016025D01*
X035361Y016097D01*
X038040Y018124D02*
X038648Y017516D01*
X038648Y014431D01*
X038286Y014069D01*
X011108Y021661D02*
X009612Y021661D01*
X009612Y025012D01*
X011108Y025012D01*
X011108Y021661D01*
X009720Y024726D02*
X009722Y024748D01*
X009728Y024770D01*
X009737Y024790D01*
X009750Y024808D01*
X009766Y024824D01*
X009784Y024837D01*
X009804Y024846D01*
X009826Y024852D01*
X009848Y024854D01*
X009870Y024852D01*
X009892Y024846D01*
X009912Y024837D01*
X009930Y024824D01*
X009946Y024808D01*
X009959Y024790D01*
X009968Y024770D01*
X009974Y024748D01*
X009976Y024726D01*
X009974Y024704D01*
X009968Y024682D01*
X009959Y024662D01*
X009946Y024644D01*
X009930Y024628D01*
X009912Y024615D01*
X009892Y024606D01*
X009870Y024600D01*
X009848Y024598D01*
X009826Y024600D01*
X009804Y024606D01*
X009784Y024615D01*
X009766Y024628D01*
X009750Y024644D01*
X009737Y024662D01*
X009728Y024682D01*
X009722Y024704D01*
X009720Y024726D01*
D17*
X019060Y008437D03*
D18*
X029310Y014337D03*
X029310Y015337D03*
X029310Y016337D03*
X029240Y017617D03*
X029240Y018617D03*
X023920Y021567D03*
X023920Y022567D03*
X023700Y023787D03*
X023700Y024787D03*
X023700Y025787D03*
X019110Y023687D03*
X019110Y022687D03*
X003460Y022887D03*
X003460Y023887D03*
X003460Y024887D03*
X003460Y021887D03*
X003460Y020887D03*
X003460Y019887D03*
X003110Y006287D03*
X003110Y005287D03*
X003110Y004287D03*
X003110Y003287D03*
X029710Y002357D03*
X029710Y001357D03*
X031690Y003137D03*
X031690Y004137D03*
D19*
X003159Y009173D03*
D20*
X031960Y009087D02*
X031960Y005587D01*
D21*
X030460Y006607D03*
X030460Y008167D03*
D22*
X034849Y014246D03*
X038471Y017947D03*
D23*
X034010Y018658D03*
D24*
X025834Y023948D02*
X025836Y023967D01*
X025842Y023986D01*
X025851Y024003D01*
X025864Y024018D01*
X025879Y024029D01*
X025897Y024038D01*
X025915Y024043D01*
X025935Y024044D01*
X025954Y024041D01*
X025972Y024034D01*
X025989Y024024D01*
X026003Y024011D01*
X026014Y023995D01*
X026022Y023977D01*
X026026Y023958D01*
X026026Y023938D01*
X026022Y023919D01*
X026014Y023901D01*
X026003Y023885D01*
X025989Y023872D01*
X025972Y023862D01*
X025954Y023855D01*
X025935Y023852D01*
X025915Y023853D01*
X025897Y023858D01*
X025879Y023867D01*
X025864Y023878D01*
X025851Y023893D01*
X025842Y023910D01*
X025836Y023929D01*
X025834Y023948D01*
X006910Y022167D02*
X004910Y022167D01*
D25*
X006032Y019027D03*
X010198Y027467D03*
X031702Y013637D03*
X033682Y001517D03*
X005608Y007277D03*
D26*
X027205Y024267D02*
X027280Y024192D01*
X027430Y024192D01*
X027505Y024267D01*
X027505Y024642D01*
X027665Y024567D02*
X027740Y024642D01*
X027891Y024642D01*
X027966Y024567D01*
X027891Y024417D02*
X027740Y024417D01*
X027665Y024492D01*
X027665Y024567D01*
X027816Y024717D02*
X027816Y024117D01*
X027891Y024192D02*
X027966Y024267D01*
X027966Y024342D01*
X027891Y024417D01*
X027891Y024192D02*
X027740Y024192D01*
X027665Y024267D01*
X027205Y024267D02*
X027205Y024642D01*
X028126Y024417D02*
X028351Y024417D01*
X028426Y024342D01*
X028426Y024267D01*
X028351Y024192D01*
X028201Y024192D01*
X028126Y024267D01*
X028126Y024417D01*
X028276Y024567D01*
X028426Y024642D01*
M02*
